{
DisplayStrings = (
hamburgerfontstif,
"donkey kong"
);
date = "2016-11-08 10:02:54 +0000";
familyName = "Mell Sans 0";
featurePrefixes = (
{
automatic = 1;
code = "languagesystem DFLT dflt;\012languagesystem cyrl dflt;\012languagesystem latn dflt;\012languagesystem latn CAT;\012languagesystem latn ROM;\012languagesystem latn MOL;\012languagesystem latn TRK;\012";
name = Languagesystems;
}
);
features = (
{
automatic = 1;
code = "feature locl;\012feature frac;\012";
name = aalt;
},
{
automatic = 1;
code = "script latn;\012language CAT;\012sub  l' periodcentered' l by ldot;\012sub  L' periodcentered' L by Ldot;\012language ROM;\012sub Scedilla by Scommaaccent;\012sub scedilla by scommaaccent;\012sub Tcedilla by Tcommaaccent;\012sub tcedilla by tcommaaccent;\012language MOL;\012sub Scedilla by Scommaaccent;\012sub scedilla by scommaaccent;\012sub Tcedilla by Tcommaaccent;\012sub tcedilla by tcommaaccent;\012language KAZ;\012sub i by idotaccent;\012language TAT;\012sub i by idotaccent;\012language TRK;\012sub i by idotaccent;\012language CRT;\012sub i by idotaccent;\012language AZE;\012sub i by idotaccent;\012";
name = locl;
},
{
automatic = 1;

glyphs = (
{
glyphname = A;
lastChange = "2016-12-21 09:34:51 +0000";
layers = (
{
anchors = (
{
name = ogonek;
position = "{527, 10}";
},
{
name = top;
position = "{274, 700}";
}
);
background = {
paths = (
{
closed = 0;
nodes = (
"327 396 LINE"
);
}
);
};
components = (
{
name = _slash;
transform = "{-1, 0, 0, 1, 595, -1}";
},
{
name = _slash;
transform = "{1, 0, 0, 1, -43, -1}";
},
{
name = _dash;
transform = "{1, 0, 0, 1, -43, -61}";
}
);
layerId = "7EBE3D46-E53E-419E-A3EC-596DA2EA1E0D";
name = Regular;
width = 562;
}
);
leftKerningGroup = A;
rightKerningGroup = A;
unicode = 0041;
},
{
glyphname = B;
lastChange = "2016-12-21 09:22:52 +0000";
layers = (
{
background = {
paths = (
{
closed = 1;
nodes = (
"290 356 OFFCURVE",
"233 353 OFFCURVE",
"313 362 CURVE",
"367 379 OFFCURVE",
"403 421 OFFCURVE",
"403 508 CURVE SMOOTH",
"403 638 OFFCURVE",
"349 703 OFFCURVE",
"211 701 CURVE SMOOTH",
"141 700 LINE",
"141 700 OFFCURVE",
"138 356 OFFCURVE",
"138 356 CURVE SMOOTH"
);
},
{
closed = 1;
nodes = (
"192 619 LINE SMOOTH",
"280 619 OFFCURVE",
"316 586 OFFCURVE",
"316 513 CURVE SMOOTH",
"316 439 OFFCURVE",
"301 396 OFFCURVE",
"216 396 CURVE SMOOTH",
"121 396 LINE",
"121 619 LINE"
);
}
);
};
components = (
{
name = _I;
transform = "{1, 0, 0, 1, 30, 0}";
},
{
name = _curve_B;
transform = "{1, 0, 0, -1, 54, 701}";
},
{
name = _curve_B;
transform = "{1, 0, 0, 1, 38, 1}";
}
);
layerId = "7EBE3D46-E53E-419E-A3EC-596DA2EA1E0D";
name = Regular;
width = 536;
}
);
unicode = 0042;
},
{
glyphname = G;
lastChange = "2016-12-21 09:50:59 +0000";
layers = (
{
background = {
paths = (
{
closed = 1;
nodes = (
"491 188 LINE",
"419 109 OFFCURVE",
"361 84 OFFCURVE",
"302 84 CURVE SMOOTH",
"294 84 LINE",
"287 -8 LINE",
"303 -9 LINE",
"389 -9 OFFCURVE",
"428 10 OFFCURVE",
"491 70 CURVE"
);
}
);
};
components = (
{
name = _C_curve;
transform = "{1, 0, 0, 1, 29, 44}";
},
{
name = _O;
transform = "{1, 0, 0, -1, 11, 698}";
},
{
name = "_dash-small";
transform = "{1, 0, 0, 1, 159, 22}";
},
{
name = _I_small;
transform = "{1, 0, 0, 1, 358, 79}";
},
{
name = "_dash-small";
transform = "{1, 0, 0, 1, 129, 22}";
}
);
layerId = "7EBE3D46-E53E-419E-A3EC-596DA2EA1E0D";
name = Regular;
paths = (
{
closed = 1;
nodes = (
"506 224.781 LINE",
"420.236 121.601 OFFCURVE",
"363.402 94 OFFCURVE",
"302 94 CURVE",
"279.746 94 LINE",
"271.296 -17.0575 LINE",
"302.064 -18.9805 LINE",
"303 -19 LINE",
"395.716 -19 OFFCURVE",
"440.723 4.03423 OFFCURVE",
"506 67.2293 CURVE"
);
}
);
width = 561;
}
);
unicode = 0047;
},
{
glyphname = K;
lastChange = "2016-12-21 10:12:01 +0000";
layers = (
{
background = {
paths = (
{
closed = 1;
nodes = (
"221 337 LINE SMOOTH",
"422 2 LINE",
"510 2 LINE",
"510 26 LINE",
"273 425 LINE SMOOTH"
);
},
{
closed = 1;
nodes = (
"505 702 LINE",
"408 702 LINE",
"161 394 LINE",
"77 394 LINE",
"70 248 LINE",
"157 248 LINE",
"505 679 LINE"
);
}
);
};
components = (
{
name = _I;
transform = "{1, 0, 0, 1, 30, 0}";
}
);
layerId = "7EBE3D46-E53E-419E-A3EC-596DA2EA1E0D";
name = Regular;
paths = (
{
closed = 1;
nodes = (
"195 337 LINE",
"412.051 -8 LINE",
"525 -8 LINE",
"525 27.5655 LINE",
"253 452 LINE"
);
},
{
closed = 1;
nodes = (
"520 712 LINE",
"399.3 712 LINE",
"152 384 LINE",
"62.4737 404 LINE",
"54.5148 238 LINE",
"165.669 238 LINE",
"520 676.841 LINE"
);
}
);
width = 542;
}
);
unicode = 004B;
},
{
glyphname = M;
lastChange = "2016-12-21 09:47:21 +0000";
layers = (
{
background = {
paths = (
{
closed = 1;
nodes = (
"367 271 LINE",
"366 271 LINE",
"396 362 LINE",
"327 362 LINE"
);
}
);
};
components = (
{
name = _M;
transform = "{-1, 0, 0, 1, 663, -10}";
},
{
name = _I_small;
transform = "{1, 0, 0, 1, 30, 276}";
},
{
name = _I_small;
transform = "{1, 0, 0, 1, 30, 124}";
},
{
name = _I_small;
transform = "{1, 0, 0, 1, 30, -3}";
},
{
name = _I_small;
transform = "{1, 0, 0, 1, 30, 436}";
},
{
name = _M;
transform = "{1, 0, 0, 1, 57, -10}";
},
{
name = _I_small;
transform = "{1, 0, 0, 1, 517, 239}";
},
{
name = _I_small;
transform = "{1, 0, 0, 1, 517, 127}";
},
{
name = _I_small;
transform = "{1, 0, 0, 1, 517, 0}";
},
{
name = _I_small;
transform = "{1, 0, 0, 1, 517, 379}";
}
);
layerId = "7EBE3D46-E53E-419E-A3EC-596DA2EA1E0D";
name = Regular;
paths = (
{
closed = 1;
nodes = (
"347 261 LINE",
"385 261 LINE",
"415 352 LINE",
"307 352 LINE"
);
}
);
width = 720;
}
);
unicode = 004D;
},
{
glyphname = Q;
lastChange = "2016-12-21 09:22:52 +0000";
layers = (
{
background = {
paths = (
{
closed = 1;
nodes = (
"458 -50 LINE",
"537 22 LINE",
"339 249 LINE",
"278 188 LINE"
);
}
);
};
components = (
{
name = O;
transform = "{1, 0, 0, 1, 0, 0}";
}
);
layerId = "7EBE3D46-E53E-419E-A3EC-596DA2EA1E0D";
name = Regular;
paths = (
{
closed = 1;
nodes = (
"455.649 -68.7423 LINE",
"554.558 21.4029 LINE",
"339.864 267.542 LINE",
"260.978 188.656 LINE"
);
}
);
width = 576;
}
);
unicode = 0051;
},
{
glyphname = R;
lastChange = "2016-12-21 09:22:52 +0000";
layers = (
{
background = {
paths = (
{
closed = 1;
nodes = (
"298 206 LINE SMOOTH",
"390 2 LINE",
"478 2 LINE",
"478 18 LINE",
"398 197 LINE SMOOTH"
);
},
{
closed = 1;
nodes = (
"241 308 OFFCURVE",
"262 283 OFFCURVE",
"298 206 CURVE",
"338 202 OFFCURVE",
"428 134 OFFCURVE",
"398 197 CURVE",
"377 240 OFFCURVE",
"345 336 OFFCURVE",
"252 318 CURVE SMOOTH",
"201 308 LINE"
);
}
);
};
components = (
{
name = _I;
transform = "{1, 0, 0, 1, 30, -1}";
},
{
name = _curve_generic;
transform = "{1, 0, -0, -1, 12, 1009}";
},
{
name = _curve_generic;
transform = "{1, 0, 0, 1, 12, 0}";
}
);
layerId = "7EBE3D46-E53E-419E-A3EC-596DA2EA1E0D";
name = Regular;
paths = (
{
closed = 1;
nodes = (
"277.077 217.964 LINE",
"378.982 -8 LINE",
"493 -8 LINE",
"493 19.1593 LINE",
"409.474 206.048 LINE"
);
},
{
closed = 1;
nodes = (
"201 298 LINE",
"232.658 298 OFFCURVE",
"251.752 274.338 OFFCURVE",
"292.923 183.226 CURVE",
"299.445 190.087 LINE",
"263.867 223.708 OFFCURVE",
"459.72 100.128 OFFCURVE",
"411.543 201.299 CURVE",
"391.559 242.176 OFFCURVE",
"356.111 348.52 OFFCURVE",
"249.15 327.818 CURVE",
"198.114 317.813 LINE"
);
}
);
width = 512;
}
);
unicode = 0052;
},
{
glyphname = S;
lastChange = "2016-12-21 09:22:52 +0000";
layers = (
{
background = {
paths = (
{
closed = 1;
nodes = (
"168 434 OFFCURVE",
"149 466 OFFCURVE",
"148 525 CURVE SMOOTH",
"147 580 OFFCURVE",
"182 616 OFFCURVE",
"252 616 CURVE SMOOTH",
"307 616 OFFCURVE",
"357 608 OFFCURVE",
"405 582 CURVE",
"424 674 LINE",
"374 701 OFFCURVE",
"321 709 OFFCURVE",
"253 709 CURVE SMOOTH",
"151 709 OFFCURVE",
"50 650 OFFCURVE",
"50 527 CURVE SMOOTH",
"50 416 OFFCURVE",
"103 360 OFFCURVE",
"218 324 CURVE SMOOTH",
"227 321 OFFCURVE",
"294 297 OFFCURVE",
"302 294 CURVE SMOOTH",
"351 274 OFFCURVE",
"375 240 OFFCURVE",
"374 184 CURVE SMOOTH",
"373 126 OFFCURVE",
"321 82 OFFCURVE",
"242 82 CURVE SMOOTH",
"240 82 LINE SMOOTH",
"144 82 OFFCURVE",
"109 105 OFFCURVE",
"71 126 CURVE",
"54 32 LINE",
"85 15 OFFCURVE",
"140 -13 OFFCURVE",
"239 -12 CURVE",
"390 -12 OFFCURVE",
"472 68 OFFCURVE",
"474 183 CURVE SMOOTH",
"476 301 OFFCURVE",
"417 350 OFFCURVE",
"305 389 CURVE SMOOTH",
"295 392 OFFCURVE",
"229 415 OFFCURVE",
"219 418 CURVE SMOOTH"
);
}
);
};
layerId = "7EBE3D46-E53E-419E-A3EC-596DA2EA1E0D";
name = Regular;
paths = (
{
closed = 1;
nodes = (
"181.573 440.692 OFFCURVE",
"163.938 469.676 OFFCURVE",
"162.998 525.169 CURVE",
"162.085 575.371 OFFCURVE",
"191.872 606 OFFCURVE",
"252 606 CURVE",
"312.25 606 OFFCURVE",
"362.14 596.784 OFFCURVE",
"416.076 562.477 CURVE",
"439.9 677.835 LINE",
"386.869 709.248 OFFCURVE",
"326.52 719 OFFCURVE",
"253 719 CURVE",
"145.771 719 OFFCURVE",
"35 654.292 OFFCURVE",
"35 527 CURVE",
"35 413.464 OFFCURVE",
"92.9957 352.186 OFFCURVE",
"213.519 314.457 CURVE",
"220.639 312.052 OFFCURVE",
"287.32 288.167 OFFCURVE",
"296.733 284.637 CURVE",
"337.615 267.891 OFFCURVE",
"359.93 236.099 OFFCURVE",
"359.002 184.179 CURVE",
"358.09 131.256 OFFCURVE",
"312.053 92 OFFCURVE",
"242 92 CURVE",
"240 92 LINE",
"136.266 92 OFFCURVE",
"110.688 118.982 OFFCURVE",
"59.3198 144.812 CURVE",
"38.1873 27.9619 LINE",
"63.7087 14.1098 OFFCURVE",
"124.058 -23.162 OFFCURVE",
"239.152 -21.9995 CURVE",
"397.562 -22 OFFCURVE",
"486.952 65.2104 OFFCURVE",
"488.998 182.826 CURVE",
"491.054 304.15 OFFCURVE",
"426.311 357.919 OFFCURVE",
"309.933 398.444 CURVE",
"309.31 398.578 LINE",
"301.02 401.065 OFFCURVE",
"235.02 424.065 OFFCURVE",
"223.31 427.578 CURVE"
);
}
);
width = 524;
}
);
unicode = 0053;
},
{
glyphname = Z;
lastChange = "2016-12-21 09:22:52 +0000";
layers = (
{
background = {
paths = (
{
closed = 1;
nodes = (
"398 571 LINE",
"430 571 LINE",
"430 641 LINE",
"398 641 LINE"
);
},
{
closed = 1;
nodes = (
"186 60 LINE",
"218 60 LINE",
"218 130 LINE",
"186 130 LINE"
);
}
);
};
components = (
{
name = _EF_horizontal;
transform = "{1, 0, 0, 1, 155, 307}";
},
{
name = _EF_horizontal;
transform = "{1, 0, 0, 1, -35, 307}";
},
{
name = _EF_horizontal;
transform = "{1, 0, 0, 1, 1, -312}";
},
{
name = _EF_horizontal;
transform = "{1, 0, 0, 1, 191, -312}";
},
{
name = _EF_horizontal;
transform = "{1, 0, 0, 1, 111, -312}";
},
{
name = _Z;
transform = "{1, 0, 0, 1, -41, 0}";
},
{
name = _Z;
transform = "{-1, 0, -0, -1, 658, 700}";
}
);
layerId = "7EBE3D46-E53E-419E-A3EC-596DA2EA1E0D";
name = Regular;
paths = (
{
closed = 1;
nodes = (
"383 561 LINE",
"445 561 LINE",
"445 651 LINE",
"383 651 LINE"
);
},
{
closed = 1;
nodes = (
"171 50 LINE",
"233 50 LINE",
"233 140 LINE",
"171 140 LINE"
);
}
);
width = 608;
}
);
unicode = 005A;
},
{
glyphname = a;
lastChange = "2016-12-22 06:07:16 +0000";
layers = (
{
background = {
paths = (
{
closed = 1;
nodes = (
"367 156 LINE",
"348 93 OFFCURVE",
"282 73 OFFCURVE",
"239 73 CURVE SMOOTH",
"205 72 OFFCURVE",
"159 94 OFFCURVE",
"159 148 CURVE SMOOTH",
"159 206 OFFCURVE",
"207 228 OFFCURVE",
"254 228 CURVE SMOOTH",
"287 228 OFFCURVE",
"341 229 OFFCURVE",
"373 228 CURVE",
"373 293 LINE",
"345 306 OFFCURVE",
"315 307 OFFCURVE",
"290 307 CURVE SMOOTH",
"277 307 OFFCURVE",
"234 307 OFFCURVE",
"231 307 CURVE SMOOTH",
"170 307 OFFCURVE",
"61 261 OFFCURVE",
"60 146 CURVE",
"60 36 OFFCURVE",
"146 -11 OFFCURVE",
"222 -11 CURVE SMOOTH",
"289 -11 OFFCURVE",
"345 16 OFFCURVE",
"373 62 CURVE",
"373 182 LINE"
);
},
{
closed = 1;
nodes = (
"370 247 LINE",
"370 122 OFFCURVE",
"464 167 OFFCURVE",
"464 324 CURVE SMOOTH",
"464 430 OFFCURVE",
"397 511 OFFCURVE",
"259 511 CURVE SMOOTH",
"184 511 OFFCURVE",
"130 495 OFFCURVE",
"91 464 CURVE",
"108 370 LINE",
"155 406 OFFCURVE",
"214 418 OFFCURVE",
"259 418 CURVE SMOOTH",
"330 418 OFFCURVE",
"370 378 OFFCURVE",
"370 315 CURVE SMOOTH"
);
}
);
};
components = (
{
name = _I_small;
transform = "{1, 0, 0, 1, 330, 50}";
},
{
name = _I_small;
transform = "{1, 0, 0, 1, 330, 146}";
},
{
name = _I_small;
transform = "{1, 0, 0, 1, 330, -1}";
}
);
layerId = "7EBE3D46-E53E-419E-A3EC-596DA2EA1E0D";
name = Regular;
paths = (
{
closed = 1;
nodes = (
"352.384 158.249 LINE",
"352.639 158.887 LINE",
"334.85 99.9037 OFFCURVE",
"279.068 83 OFFCURVE",
"239 83 CURVE",
"211.278 82.1933 OFFCURVE",
"174 101.021 OFFCURVE",
"174 148 CURVE",
"174 198.847 OFFCURVE",
"213.355 218 OFFCURVE",
"254 218 CURVE",
"293.542 218 OFFCURVE",
"332 219 OFFCURVE",
"358 217 CURVE",
"368 288 LINE SMOOTH",
"337 306 OFFCURVE",
"308 307 OFFCURVE",
"270 307 CURVE",
"257 307 OFFCURVE",
"234 307 OFFCURVE",
"231 307 CURVE",
"166 307 OFFCURVE",
"46 276 OFFCURVE",
"45 146.087 CURVE",
"45 31.4913 OFFCURVE",
"141.048 -21 OFFCURVE",
"222 -21 CURVE",
"295.334 -21 OFFCURVE",
"360 11 OFFCURVE",
"388 91 CURVE",
"363 203 LINE"
);
},
{
closed = 1;
nodes = (
"355 247 LINE",
"355 98.6711 OFFCURVE",
"478 158 OFFCURVE",
"478 324 CURVE",
"478 432 OFFCURVE",
"405.559 521 OFFCURVE",
"259 521 CURVE",
"176.924 521 OFFCURVE",
"114.759 501.267 OFFCURVE",
"75.4436 466.621 CURVE",
"97 355 LINE",
"147 394 OFFCURVE",
"209.701 408 OFFCURVE",
"259 408 CURVE",
"320.261 408 OFFCURVE",
"355 373.258 OFFCURVE",
"355 315 CURVE"
);
}
);
width = 532;
}
);
leftKerningGroup = e;
rightKerningGroup = e;
unicode = 0061;
},
{
glyphname = d;
lastChange = "2016-12-21 09:22:52 +0000";
layers = (
{
background = {
paths = (
{
closed = 1;
nodes = (
"370 264 LINE",
"463 264 LINE",
"463 431 LINE",
"370 431 LINE"
);
},
{
closed = 1;
nodes = (
"370 78 LINE",
"370 44 LINE",
"370 1 LINE",
"463 1 LINE",
"463 168 LINE",
"370 168 LINE"
);
}
);
};
components = (
{
name = _I_small;
transform = "{1, 0, 0, 1, 330, 582}";
},
{
name = _I_small;
transform = "{1, 0, 0, 1, 330, 98}";
},
{
name = _I_small;
transform = "{1, 0, 0, 1, 330, 426}";
},
{
name = _I_small;
transform = "{1, 0, 0, 1, 330, 572}";
},
{
name = _I_small;
transform = "{1, 0, 0, 1, 330, 533}";
},
{
name = _I_small;
transform = "{1, 0, 0, 1, 330, 165}";
},
{
name = _I_small;
transform = "{1, 0, 0, 1, 330, 328}";
},
{
name = _I_small;
transform = "{1, 0, 0, 1, 330, 474}";
},
{
name = _curve_b;
transform = "{-1, 0, 0, -1, 499, 500}";
}
);
layerId = "7EBE3D46-E53E-419E-A3EC-596DA2EA1E0D";
name = Regular;
paths = (
{
closed = 1;
nodes = (
"355 254 LINE",
"478 254 LINE",
"478 441 LINE",
"355 441 LINE"
);
},
{
closed = 1;
nodes = (
"355 78 LINE",
"355 44 LINE",
"355 -9 LINE",
"478 -9 LINE",
"478 178 LINE",
"355 178 LINE"
);
}
);
width = 533;
}
);
leftKerningGroup = e;
unicode = 0064;
},
{
glyphname = eth;
lastChange = "2016-12-21 09:22:52 +0000";
layers = (
{
background = {
paths = (
{
closed = 1;
nodes = (
"451 725 LINE",
"350 744 LINE",
"145 515 LINE SMOOTH",
"255 500 LINE SMOOTH"
);
}
);
};
components = (
{
name = six;
transform = "{-1, 0, 0, 1, 558, 0}";
}
);
layerId = "7EBE3D46-E53E-419E-A3EC-596DA2EA1E0D";
name = Regular;
paths = (
{
closed = 1;
nodes = (
"473.38 731.139 LINE",
"343.254 755.618 LINE",
"121.593 508.007 LINE",
"262.294 488.821 LINE"
);
}
);
width = 558;
}
);
unicode = 00F0;
},
{
glyphname = e;
lastChange = "2016-12-21 09:22:52 +0000";
layers = (
{
background = {
paths = (
{
closed = 1;
nodes = (
"153 301 LINE",
"153 367 OFFCURVE",
"205 418 OFFCURVE",
"275 418 CURVE SMOOTH",
"345 418 OFFCURVE",
"386 365 OFFCURVE",
"386 303 CURVE",
"142 303 LINE",
"149 229 LINE",
"476 229 LINE",
"475 282 LINE SMOOTH",
"473 409 OFFCURVE",
"402 511 OFFCURVE",
"274 511 CURVE SMOOTH",
"147 511 OFFCURVE",
"60 408 OFFCURVE",
"60 282 CURVE SMOOTH",
"60 224 LINE",
"107 238 LINE",
"154 229 LINE"
);
}
);
};
components = (
{
name = _curve_lower_big;
transform = "{1, 0, 0, 1, 603, 1}";
}
);
layerId = "7EBE3D46-E53E-419E-A3EC-596DA2EA1E0D";
name = Regular;
paths = (
{
closed = 1;
nodes = (
"167.999 301.139 LINE",
"168 362.21 OFFCURVE",
"214.648 408 OFFCURVE",
"275 408 CURVE",
"330.632 408 OFFCURVE",
"366.621 366.203 OFFCURVE",
"370.627 313 CURVE",
"126.032 313 LINE",
"134.924 219 LINE",
"491.19 219 LINE",
"489.997 282.189 LINE",
"487.971 410.892 OFFCURVE",
"411.327 521 OFFCURVE",
"274 521 CURVE",
"138.537 521 OFFCURVE",
"45 410.261 OFFCURVE",
"45 282 CURVE",
"45 208.673 LINE",
"108.017 227.444 LINE",
"169.185 215.731 LINE"
);
}
);
width = 537;
}
);
leftKerningGroup = e;
unicode = 0065;
},
{
glyphname = k;
lastChange = "2016-12-21 09:22:52 +0000";
layers = (
{
background = {
paths = (
{
closed = 1;
nodes = (
"150 106 LINE SMOOTH",
"445 475 LINE",
"445 498 LINE",
"347 498 LINE",
"162 255 LINE",
"118 254 LINE SMOOTH"
);
}
);
};
components = (
{
name = _I_dbh;
transform = "{1, 0, 0, 1, 30, 0}";
},
{
name = _x;
transform = "{1, 0, 0, 1, -131, 0}";
}
);
layerId = "7EBE3D46-E53E-419E-A3EC-596DA2EA1E0D";
name = Regular;
paths = (
{
closed = 1;
nodes = (
"141.657 74.6648 LINE",
"460 472.863 LINE",
"460 508 LINE",
"338.067 508 LINE",
"152.913 264.799 LINE",
"100.803 263.614 LINE"
);
}
);
width = 505;
}
);
unicode = 006B;
},
{
glyphname = m;
lastChange = "2016-12-21 09:29:18 +0000";
layers = (
{
background = {
paths = (
{
closed = 1;
nodes = (
"711 2 LINE",
"711 267 LINE SMOOTH",
"711 422 OFFCURVE",
"676 513 OFFCURVE",
"565 513 CURVE SMOOTH",
"503 513 OFFCURVE",
"455 489 OFFCURVE",
"423 438 CURVE",
"401 397 LINE",
"436 291 LINE",
"448 361 OFFCURVE",
"486 429 OFFCURVE",
"539 429 CURVE SMOOTH",
"594 429 OFFCURVE",
"619 388 OFFCURVE",
"619 282 CURVE",
"619 2 LINE"
);
}
);
};
components = (
{
name = "_i-dotless";
transform = "{1, 0, 0, 1, 3, 0}";
},
{
name = _m_curve;
transform = "{1, 0, 0, 1, 49, 7}";
}
);
layerId = "7EBE3D46-E53E-419E-A3EC-596DA2EA1E0D";
name = Regular;
paths = (
{
closed = 1;
nodes = (
"726 -8 LINE",
"726 267 LINE",
"726 422.99 OFFCURVE",
"698 523 OFFCURVE",
"565 523 CURVE",
"498.403 523 OFFCURVE",
"436 485 OFFCURVE",
"413 413 CURVE",
"396 358 LINE",
"421.756 287.865 LINE",
"450.784 289.31 LINE",
"462.397 357.048 OFFCURVE",
"498.321 419 OFFCURVE",
"539 419 CURVE",
"582.031 419 OFFCURVE",
"604 384.353 OFFCURVE",
"604 282 CURVE",
"604 -8 LINE"
);
}
);
width = 781;
}
);
leftKerningGroup = e;
unicode = 006D;
},
{
glyphname = r;
lastChange = "2016-12-21 09:57:40 +0000";
layers = (
{
background = {
paths = (
{
closed = 1;
nodes = (
"367 505 LINE",
"350 510 OFFCURVE",
"331 512 OFFCURVE",
"311 512 CURVE SMOOTH",
"239 512 OFFCURVE",
"176 466 OFFCURVE",
"158 415 CURVE",
"122 296 LINE",
"163 244 LINE",
"163 369 OFFCURVE",
"217 418 OFFCURVE",
"307 418 CURVE SMOOTH",
"319 418 OFFCURVE",
"330 416 OFFCURVE",
"339 413 CURVE"
);
}
);
};
components = (
{
name = "_i-dotless";
transform = "{1, 0, 0, 1, 3, 0}";
}
);
layerId = "7EBE3D46-E53E-419E-A3EC-596DA2EA1E0D";
name = Regular;
paths = (
{
closed = 1;
nodes = (
"349 398 CURVE",
"383.77 510.039 LINE",
"365.22 518.359 OFFCURVE",
"337.508 522 OFFCURVE",
"311 522 CURVE",
"230.789 522 OFFCURVE",
"163 452 OFFCURVE",
"144 388 CURVE",
"126 285 LINE",
"178 232 LINE",
"178 354 OFFCURVE",
"217.389 408 OFFCURVE",
"307 408 CURVE",
"321 408 OFFCURVE",
"321 408 OFFCURVE"
);
}
);
width = 390;
}
);
leftKerningGroup = e;
unicode = 0072;
},
{
glyphname = s;
lastChange = "2016-12-21 10:24:09 +0000";
layers = (
{
background = {
paths = (
{
closed = 1;
nodes = (
"155 77 OFFCURVE",
"104 92 OFFCURVE",
"74 109 CURVE",
"57 23 LINE",
"85 5 OFFCURVE",
"119 -16 OFFCURVE",
"198 -16 CURVE SMOOTH",
"313 -16 OFFCURVE",
"384 47 OFFCURVE",
"384 137 CURVE SMOOTH",
"384 239 OFFCURVE",
"305 272 OFFCURVE",
"226 297 CURVE SMOOTH",
"182 310 OFFCURVE",
"152 323 OFFCURVE",
"152 368 CURVE SMOOTH",
"152 399 OFFCURVE",
"175 421 OFFCURVE",
"217 421 CURVE SMOOTH",
"257 421 OFFCURVE",
"285 418 OFFCURVE",
"336 392 CURVE",
"352 485 LINE",
"305 504 OFFCURVE",
"273 514 OFFCURVE",
"216 514 CURVE SMOOTH",
"116 514 OFFCURVE",
"55 462 OFFCURVE",
"55 370 CURVE SMOOTH",
"55 258 OFFCURVE",
"142 226 OFFCURVE",
"221 205 CURVE",
"267 191 OFFCURVE",
"286 172 OFFCURVE",
"286 137 CURVE SMOOTH",
"286 89 OFFCURVE",
"242 77 OFFCURVE",
"195 77 CURVE SMOOTH"
);
}
);
};
components = (
{
name = _c;
transform = "{-1, 0, -0, -1, 473, 649}";
}
);
layerId = "7EBE3D46-E53E-419E-A3EC-596DA2EA1E0D";
name = Regular;
paths = (
{
closed = 1;
nodes = (
"149.084 87 OFFCURVE",
"89.1575 107.812 OFFCURVE",
"63.0986 130.233 CURVE",
"41.2094 19.4994 LINE",
"67.7263 2.83624 OFFCURVE",
"104.91 -26 OFFCURVE",
"198 -26 CURVE",
"320.116 -26 OFFCURVE",
"399 43.9961 OFFCURVE",
"399 137 CURVE",
"399 244.377 OFFCURVE",
"311.678 280.853 OFFCURVE",
"230.526 306.534 CURVE",
"188.63 318.887 OFFCURVE",
"167 328.26 OFFCURVE",
"167 368 CURVE",
"167 394.072 OFFCURVE",
"184.578 411 OFFCURVE",
"217 411 CURVE",
"260.492 411 OFFCURVE",
"285 408 OFFCURVE",
"348 376 CURVE",
"367.944 490.053 LINE",
"316.628 511.208 OFFCURVE",
"280.42 524 OFFCURVE",
"216 524 CURVE",
"109.072 524 OFFCURVE",
"40 465.119 OFFCURVE",
"40 370 CURVE",
"40 252.227 OFFCURVE",
"136.106 216.878 OFFCURVE",
"217.146 195.336 CURVE",
"216.633 195.433 LINE",
"255.252 183.68 OFFCURVE",
"271 167.206 OFFCURVE",
"271 137 CURVE",
"271 95.7298 OFFCURVE",
"239.255 87 OFFCURVE",
"195 87 CURVE"
);
}
);
width = 443;
}
);
leftKerningGroup = e;
unicode = 0073;
},
{
glyphname = germandbls;
lastChange = "2016-12-21 09:52:29 +0000";
layers = (
{
background = {
paths = (
{
closed = 1;
nodes = (
"527 70 OFFCURVE",
"477 -8 OFFCURVE",
"340 -8 CURVE SMOOTH",
"305 -8 OFFCURVE",
"269 -3 OFFCURVE",
"251 0 CURVE",
"251 90 LINE",
"267 83 OFFCURVE",
"300 79 OFFCURVE",
"326 79 CURVE",
"395 82 OFFCURVE",
"438 96 OFFCURVE",
"414 163 CURVE",
"400 197 OFFCURVE",
"371 214 OFFCURVE",
"340 236 CURVE SMOOTH",
"296 268 OFFCURVE",
"252 305 OFFCURVE",
"252 370 CURVE SMOOTH",
"252 483 OFFCURVE",
"383 484 OFFCURVE",
"383 564 CURVE SMOOTH",
"384 603 OFFCURVE",
"349 620 OFFCURVE",
"285 620 CURVE SMOOTH",
"249 620 OFFCURVE",
"220 610 OFFCURVE",
"199 588 CURVE SMOOTH",
"189 578 OFFCURVE",
"181 567 OFFCURVE",
"176 558 CURVE SMOOTH",
"170 548 OFFCURVE",
"168 524 OFFCURVE",
"168 485 CURVE SMOOTH",
"168 0 LINE",
"70 0 LINE",
"70 504 LINE SMOOTH",
"70 646 OFFCURVE",
"163 713 OFFCURVE",
"293 713 CURVE SMOOTH",
"423 713 OFFCURVE",
"481 657 OFFCURVE",
"481 571 CURVE SMOOTH",
"481 450 OFFCURVE",
"349 448 OFFCURVE",
"349 374 CURVE SMOOTH",
"349 296 OFFCURVE",
"527 269 OFFCURVE",
"527 139 CURVE SMOOTH"
);
}
);
};
layerId = "7EBE3D46-E53E-419E-A3EC-596DA2EA1E0D";
name = Regular;
paths = (
{
closed = 1;
nodes = (
"542 276.909 OFFCURVE",
"364 303.989 OFFCURVE",
"364 374 CURVE",
"364 441.742 OFFCURVE",
"496 435.825 OFFCURVE",
"496 571 CURVE",
"496 657.715 OFFCURVE",
"428.496 723 OFFCURVE",
"293 723 CURVE",
"158.8 723 OFFCURVE",
"55 647.539 OFFCURVE",
"55 504 CURVE",
"55 -10 LINE",
"183 -10 LINE",
"183 485 LINE",
"183 523.791 OFFCURVE",
"184.87 546.229 OFFCURVE",
"188.679 552.641 CURVE",
"194.858 563.493 OFFCURVE",
"202.047 573.377 OFFCURVE",
"209.43 580.808 CURVE",
"230.135 602.355 OFFCURVE",
"252.306 610 OFFCURVE",
"285 610 CURVE",
"340.151 610 OFFCURVE",
"368.771 594.152 OFFCURVE",
"368.01 564.513 CURVE",
"368 490.374 OFFCURVE",
"237 497.291 OFFCURVE",
"237 370 CURVE",
"237 301.842 OFFCURVE",
"284.836 261.616 OFFCURVE",
"331.023 227.987 CURVE",
"363.779 204.812 OFFCURVE",
"391.624 188.869 OFFCURVE",
"403.608 149.414 CURVE",
"433.217 157.542 LINE",
"422.766 175.652 LINE",
"396.066 169.276 LINE",
"425.03 101.815 OFFCURVE",
"385.363 89.9216 OFFCURVE",
"310.367 88.541 CURVE",
"311.655 68.7922 LINE",
"341 69.2173 LINE",
"341 89.5087 LINE",
"307.995 87.1091 OFFCURVE",
"255.302 93.172 OFFCURVE",
"236 108.258 CURVE",
"236 0.0446987 LINE",
"248.445 -9.80911 LINE",
"264.285 -12.5478 OFFCURVE",
"302.923 -18 OFFCURVE",
"340 -18 CURVE",
"484.518 -18 OFFCURVE",
"542 70.3057 OFFCURVE",
"542 139 CURVE"
);
}
);
width = 597;
}
);
unicode = 00DF;
},
{
glyphname = t;
lastChange = "2016-12-27 12:14:23 +0000";
layers = (
{
background = {
paths = (
{
closed = 1;
nodes = (
"60 454 LINE",
"60 420 LINE",
"120 420 LINE",
"120 222 LINE SMOOTH",
"120 93 OFFCURVE",
"214 141 OFFCURVE",
"214 222 CURVE SMOOTH",
"214 420 LINE",
"341 420 LINE",
"341 500 LINE",
"214 500 LINE",
"214 590 LINE",
"180 590 LINE"
);
}
);
};
components = (
{
name = _curve_lower;
transform = "{1, 0, 0, 1, 18, -18}";
}
);
hints = (
{
horizontal = 1;
place = "{420.000000, 80.000000}";
}
);
layerId = "7EBE3D46-E53E-419E-A3EC-596DA2EA1E0D";
name = Regular;
paths = (
{
closed = 1;
nodes = (
"25 436 LINE",
"25 410 LINE",
"106 410 LINE",
"106 222 LINE",
"106 71 OFFCURVE",
"229 134 OFFCURVE",
"229 222 CURVE",
"229 410 LINE",
"366 410 LINE",
"366 510 LINE",
"229 510 LINE",
"229 620 LINE",
"192 620 LINE"
);
}
);
width = 448;
}
);
leftKerningGroup = e;
unicode = 0074;
},
{
glyphname = u;
lastChange = "2016-12-21 10:01:54 +0000";
layers = (
{
background = {
paths = (
{
closed = 1;
nodes = (
"70 499 LINE",
"70 197 LINE",
"72 51 OFFCURVE",
"141 -11 OFFCURVE",
"263 -11 CURVE",
"263 81 LINE",
"209 81 OFFCURVE",
"163 101 OFFCURVE",
"163 217 CURVE SMOOTH",
"163 499 LINE"
);
}
);
};
components = (
{
name = _d_curl;
transform = "{-1, -0, 0, -1, 504, 500}";
},
{
name = "_i-dotless";
transform = "{1, 0, 0, 1, 310, 0}";
}
);
layerId = "7EBE3D46-E53E-419E-A3EC-596DA2EA1E0D";
name = Regular;
paths = (
{
closed = 1;
nodes = (
"55 512 LINE",
"55 200 LINE",
"57 45 OFFCURVE",
"135 -20 OFFCURVE",
"253 -20 CURVE",
"253 92 LINE",
"218 92 OFFCURVE",
"178 100 OFFCURVE",
"178 220 CURVE",
"178 512 LINE"
);
}
);
width = 540;
}
);
leftKerningGroup = e;
unicode = 0075;
},
{
glyphname = y;
lastChange = "2016-12-21 09:37:46 +0000";
layers = (
{
background = {
paths = (
{
closed = 1;
nodes = (
"362 500 LINE",
"209 -15 LINE",
"298 -15 LINE",
"457 478 LINE",
"457 500 LINE"
);
},
{
closed = 1;
nodes = (
"20 500 LINE",
"20 476 LINE",
"173 0 LINE",
"221 0 LINE",
"253 89 LINE",
"226 88 LINE",
"115 500 LINE"
);
}
);
};
components = (
{
name = _yQ;
transform = "{1, 0, 0, 1, -14, 0}";
}
);
layerId = "7EBE3D46-E53E-419E-A3EC-596DA2EA1E0D";
name = Regular;
paths = (
{
closed = 1;
nodes = (
"349.746 510 LINE",
"190.804 -25 LINE",
"310.041 -25 LINE",
"472 477.176 LINE",
"472 510 LINE"
);
},
{
closed = 1;
nodes = (
"5 510 LINE",
"5 475.179 LINE",
"157 -10 LINE",
"232.736 -10 LINE",
"257 120 LINE",
"223 118 LINE",
"127.49 510 LINE"
);
}
);
width = 478;
}
);
leftKerningGroup = e;
unicode = 0079;
},
{
glyphname = z;
lastChange = "2016-12-21 09:22:52 +0000";
layers = (
{
background = {
paths = (
{
closed = 1;
nodes = (
"285 371 LINE",
"317 371 LINE SMOOTH",
"317 441 LINE",
"285 441 LINE"
);
},
{
closed = 1;
nodes = (
"164 45 LINE",
"196 45 LINE",
"196 115 LINE",
"164 115 LINE"
);
}
);
};
components = (
{
name = _EF_horizontal;
transform = "{1, 0, 0, 1, 104, -312}";
},
{
name = _EF_horizontal;
transform = "{1, 0, 0, 1, -48, -312}";
},
{
name = _EF_horizontal;
transform = "{1, 0, 0, 1, 67, 106}";
},
{
name = _EF_horizontal;
transform = "{1, 0, 0, 1, -76, 106}";
},
{
name = _X;
transform = "{1, 0, 0, 1, -123, -199}";
},
{
name = _X;
transform = "{-1, 0, -0, -1, 605, 698}";
}
);
layerId = "7EBE3D46-E53E-419E-A3EC-596DA2EA1E0D";
name = Regular;
paths = (
{
closed = 1;
nodes = (
"270 361 LINE",
"332 361 LINE",
"332 451 LINE",
"270 451 LINE"
);
},
{
closed = 1;
nodes = (
"149 35 LINE",
"211 35 LINE",
"211 125 LINE",
"149 125 LINE"
);
}
);
width = 481;
}
);
leftKerningGroup = e;
unicode = 007A;
},
{
glyphname = "De-cy";
lastChange = "2016-12-21 09:22:52 +0000";
layers = (
{
background = {
paths = (
{
closed = 1;
nodes = (
"46 52 OFFCURVE",
"46 68 OFFCURVE",
"74 68 CURVE SMOOTH",
"131 68 OFFCURVE",
"230 60 OFFCURVE",
"230 186 CURVE SMOOTH",
"230 355 LINE",
"137 355 LINE",
"137 178 LINE SMOOTH",
"137 121 OFFCURVE",
"104 81 OFFCURVE",
"21 81 CURVE",
"24 58 LINE"
);
}
);
};
components = (
{
name = _I_small;
transform = "{1, 0, 0, 1, 97, 533}";
},
{
name = _I_small;
transform = "{1, 0, 0, 1, 97, 328}";
},
{
name = _I_small;
transform = "{1, 0, 0, 1, 97, 474}";
},
{
name = _I;
transform = "{1, 0, 0, 1, 417, 0}";
},
{
name = _EF_horizontal;
transform = "{1, 0, 0, 1, 260, -313}";
},
{
name = _EF_horizontal;
transform = "{1, 0, 0, 1, -112, -313}";
},
{
name = _EF_horizontal;
transform = "{1, 0, 0, 1, 10, 308}";
},
{
name = _EF_horizontal;
transform = "{1, 0, 0, 1, 140, 308}";
},
{
name = _EF_horizontal;
transform = "{1, 0, 0, 1, 66, -313}";
},
{
name = _D_cyr;
transform = "{-1, 0, 0, 1, 672, 0}";
},
{
name = _D_cyr;
transform = "{1, 0, 0, 1, -43, -1}";
}
);
layerId = "7EBE3D46-E53E-419E-A3EC-596DA2EA1E0D";
name = Regular;
paths = (
{
closed = 1;
nodes = (
"20.0532 48.3524 LINE",
"36.3821 43.899 OFFCURVE",
"73.469 58 OFFCURVE",
"74 58 CURVE",
"128.125 58 OFFCURVE",
"245 50.7515 OFFCURVE",
"245 186 CURVE",
"245 365 LINE",
"122 365 LINE",
"122 178 LINE",
"122 121.459 OFFCURVE",
"89.0812 86.1322 OFFCURVE",
"4.58181 91.5453 CURVE",
"9.12599 56.7066 LINE"
);
}
);
width = 629;
}
);
unicode = 0414;
},
{
glyphname = "be-cy";
lastChange = "2016-12-21 09:22:52 +0000";
layers = (
{
background = {
paths = (
{
closed = 1;
nodes = (
"172 406 LINE SMOOTH",
"182 515 OFFCURVE",
"185 653 OFFCURVE",
"456 613 CURVE",
"436 698 LINE",
"118 748 OFFCURVE",
"71 551 OFFCURVE",
"71 355 CURVE SMOOTH",
"71 328 OFFCURVE",
"70 261 OFFCURVE",
"70 242 CURVE",
"157 237 LINE"
);
},
{
closed = 1;
nodes = (
"283 461 LINE",
"280 461 OFFCURVE",
"277 461 OFFCURVE",
"274 461 CURVE SMOOTH",
"187 461 OFFCURVE",
"131 380 OFFCURVE",
"131 242 CURVE",
"131 212 OFFCURVE",
"163 177 OFFCURVE",
"163 235 CURVE SMOOTH",
"163 312 OFFCURVE",
"195 371 OFFCURVE",
"275 371 CURVE SMOOTH",
"277 371 OFFCURVE",
"279 371 OFFCURVE",
"281 371 CURVE"
);
}
);
};
components = (
{
name = _o_curve;
transform = "{-1, -0, 0, -1, 532, 495}";
},
{
name = _o_curve;
transform = "{1, 0, 0, -1, 26, 495}";
},
{
name = _o_curve;
transform = "{-1, 0, 0, 1, 532, -50}";
}
);
layerId = "7EBE3D46-E53E-419E-A3EC-596DA2EA1E0D";
name = Regular;
paths = (
{
closed = 1;
nodes = (
"186.941 405.116 LINE",
"197.258 517.579 OFFCURVE",
"199.87 647.197 OFFCURVE",
"474.239 599.831 CURVE",
"449.237 706.087 LINE",
"106.855 764.688 OFFCURVE",
"56 553.713 OFFCURVE",
"56 355 CURVE",
"56 328.037 OFFCURVE",
"55 261.037 OFFCURVE",
"55 242 CURVE",
"69.1394 232.016 LINE",
"171.058 226.159 LINE"
);
},
{
closed = 1;
nodes = (
"295.996 370.778 LINE",
"297.996 460.778 LINE",
"283 471 LINE",
"280 471 OFFCURVE",
"277 471 OFFCURVE",
"274 471 CURVE",
"177.644 471 OFFCURVE",
"116 381.837 OFFCURVE",
"116 242 CURVE",
"116 211.666 OFFCURVE",
"178 143.78 OFFCURVE",
"178 235 CURVE",
"178 308.526 OFFCURVE",
"207.403 361 OFFCURVE",
"275 361 CURVE",
"277 361 OFFCURVE",
"279 361 OFFCURVE",
"281 361 CURVE"
);
}
);
width = 558;
}
);
unicode = 0431;
},
{
glyphname = "che-cy";
lastChange = "2016-12-21 09:22:52 +0000";
layers = (
{
background = {
paths = (
{
closed = 1;
nodes = (
"163 403 OFFCURVE",
"70 421 OFFCURVE",
"70 335 CURVE SMOOTH",
"70 223 OFFCURVE",
"131 162 OFFCURVE",
"269 172 CURVE SMOOTH",
"418 183 LINE",
"403 264 LINE",
"288 254 LINE SMOOTH",
"200 246 OFFCURVE",
"163 263 OFFCURVE",
"163 336 CURVE SMOOTH"
);
}
);
};
components = (
{
name = _I_small;
transform = "{1, 0, 0, 1, 325, 0}";
},
{
name = _I_small;
transform = "{1, 0, 0, 1, 325, 165}";
},
{
name = _I_small;
transform = "{1, 0, 0, 1, 325, 329}";
},
{
name = _I_small;
transform = "{1, 0, 0, 1, 30, 332}";
}
);
layerId = "7EBE3D46-E53E-419E-A3EC-596DA2EA1E0D";
name = Regular;
paths = (
{
closed = 1;
nodes = (
"178 412.466 OFFCURVE",
"55 436.273 OFFCURVE",
"55 335 CURVE",
"55 220.322 OFFCURVE",
"123.89 151.432 OFFCURVE",
"270.084 162.026 CURVE",
"434.72 174.18 LINE",
"416.011 275.207 LINE",
"286.701 263.962 LINE",
"205.457 256.579 OFFCURVE",
"178 270.129 OFFCURVE",
"178 336 CURVE"
);
}
);
width = 528;
}
);
leftKerningGroup = e;
unicode = 0447;
},
{
glyphname = "ia-cy";
lastChange = "2016-12-21 09:22:52 +0000";
layers = (
{
background = {
paths = (
{
closed = 1;
nodes = (
"225 111 CURVE SMOOTH",
"258 168 OFFCURVE",
"303 155 OFFCURVE",
"337 157 CURVE SMOOTH",
"349 158 OFFCURVE",
"377 182 OFFCURVE",
"346 190 CURVE SMOOTH",
"334 193 OFFCURVE",
"203 175 OFFCURVE",
"199 175 CURVE SMOOTH",
"132 168 OFFCURVE",
"126 107 OFFCURVE",
"79 16 CURVE",
"79 0 LINE",
"170 0 LINE",
"185 27 OFFCURVE",
"205 77 OFFCURVE"
);
}
);
};
components = (
{
name = "_i-dotless";
transform = "{1, 0, 0, 1, 269, 0}";
},
{
name = _ya_cyr;
transform = "{1, 0, 0, 1, -30, -120}";
}
);
layerId = "7EBE3D46-E53E-419E-A3EC-596DA2EA1E0D";
name = Regular;
paths = (
{
closed = 1;
nodes = (
"196.939 18.2606 OFFCURVE",
"218.215 72.4158 OFFCURVE",
"237.929 105.93 CURVE",
"268.285 158.331 OFFCURVE",
"296.67 144.593 OFFCURVE",
"337.881 147.017 CURVE",
"360.815 148.915 OFFCURVE",
"404.807 185.474 OFFCURVE",
"349.748 199.683 CURVE",
"339.08 202.341 OFFCURVE",
"265.868 193.402 OFFCURVE",
"225.424 186.918 CURVE",
"117.637 190.857 OFFCURVE",
"115.9 116.326 OFFCURVE",
"64 17.3752 CURVE",
"64 -10 LINE",
"180.164 -10 LINE"
);
}
);
width = 499;
}
);
leftKerningGroup = e;
unicode = 044F;
},
{
glyphname = one;
lastChange = "2016-12-21 09:22:52 +0000";
layers = (
{
background = {
paths = (
{
closed = 1;
nodes = (
"70 579 LINE",
"272 622 LINE",
"272 700 LINE",
"232 700 LINE",
"70 660 LINE"
);
}
);
};
components = (
{
name = _I_small;
transform = "{1, 0, 0, 1, 139, 3}";
},
{
name = _I_small;
transform = "{1, 0, 0, 1, 139, 168}";
},
{
name = _I_small;
transform = "{1, 0, 0, 1, 139, 331}";
},
{
name = _I_small;
transform = "{1, 0, 0, 1, 139, 477}";
},
{
name = "_dash-small";
transform = "{1, 0, 0, 1, 21, -219}";
},
{
name = "_dash-small";
transform = "{1, 0, 0, 1, -62, -219}";
}
);
layerId = "7EBE3D46-E53E-419E-A3EC-596DA2EA1E0D";
name = Regular;
paths = (
{
closed = 1;
nodes = (
"55 565.361 LINE",
"287 614.747 LINE",
"287 710 LINE",
"229.585 710 LINE",
"55 666.893 LINE"
);
}
);
width = 423;
}
);
unicode = 0031;
},
{
glyphname = five;
lastChange = "2016-12-21 09:22:52 +0000";
layers = (
{
background = {
paths = (
{
closed = 1;
nodes = (
"351 208 LINE",
"351 83 OFFCURVE",
"445 66 OFFCURVE",
"445 223 CURVE SMOOTH",
"445 352 OFFCURVE",
"368 458 OFFCURVE",
"221 458 CURVE SMOOTH",
"165 458 OFFCURVE",
"130 456 OFFCURVE",
"90 456 CURVE",
"108 366 LINE",
"140 366 OFFCURVE",
"195 366 OFFCURVE",
"220 366 CURVE SMOOTH",
"301 366 OFFCURVE",
"351 306 OFFCURVE",
"351 225 CURVE SMOOTH"
);
}
);
};
components = (
{
name = _curve_lower_big;
transform = "{-1, 0, 0, 1, -98, 0}";
},
{
name = _I_small;
transform = "{1, 0, 0, 1, 45, 365}";
},
{
name = _I_small;
transform = "{1, 0, 0, 1, 45, 532}";
},
{
name = _EF_horizontal;
transform = "{1, 0, 0, 1, 64, 307}";
},
{
name = _EF_horizontal;
transform = "{1, 0, 0, 1, -35, 307}";
}
);
layerId = "7EBE3D46-E53E-419E-A3EC-596DA2EA1E0D";
name = Regular;
paths = (
{
closed = 1;
nodes = (
"336 208 LINE",
"336 71.3595 OFFCURVE",
"460 48.9406 OFFCURVE",
"460 223 CURVE",
"460 353.935 OFFCURVE",
"377.141 468 OFFCURVE",
"221 468 CURVE",
"156.402 468 OFFCURVE",
"119.93 465.392 OFFCURVE",
"72.8726 466.132 CURVE",
"94.8991 356 LINE",
"122.101 356 OFFCURVE",
"191.098 356 OFFCURVE",
"220 356 CURVE",
"290.421 356 OFFCURVE",
"336 301.721 OFFCURVE",
"336 225 CURVE"
);
}
);
width = 515;
}
);
unicode = 0035;
},
{
glyphname = six;
lastChange = "2016-12-21 09:22:52 +0000";
layers = (
{
background = {
paths = (
{
closed = 1;
nodes = (
"166 376 LINE SMOOTH",
"170 443 OFFCURVE",
"192 491 OFFCURVE",
"226 538 CURVE SMOOTH",
"266 593 OFFCURVE",
"320 626 OFFCURVE",
"398 626 CURVE",
"367 705 LINE",
"300 705 OFFCURVE",
"220 683 OFFCURVE",
"156 594 CURVE SMOOTH",
"98 514 OFFCURVE",
"70 430 OFFCURVE",
"70 315 CURVE",
"70 242 LINE",
"157 237 LINE"
);
},
{
closed = 1;
nodes = (
"283 461 LINE",
"280 461 OFFCURVE",
"277 461 OFFCURVE",
"274 461 CURVE SMOOTH",
"187 461 OFFCURVE",
"131 380 OFFCURVE",
"131 242 CURVE",
"131 212 OFFCURVE",
"163 177 OFFCURVE",
"163 235 CURVE SMOOTH",
"163 312 OFFCURVE",
"195 371 OFFCURVE",
"275 371 CURVE SMOOTH",
"277 371 OFFCURVE",
"279 371 OFFCURVE",
"281 371 CURVE"
);
}
);
};
components = (
{
name = _o_curve;
transform = "{-1, -0, 0, -1, 532, 495}";
},
{
name = _o_curve;
transform = "{1, 0, 0, -1, 26, 495}";
},
{
name = _o_curve;
transform = "{-1, 0, 0, 1, 532, -50}";
}
);
layerId = "7EBE3D46-E53E-419E-A3EC-596DA2EA1E0D";
name = Regular;
paths = (
{
closed = 1;
nodes = (
"180.969 375.354 LINE",
"184.929 441.654 OFFCURVE",
"206.08 487.802 OFFCURVE",
"238.153 532.139 CURVE",
"281.595 591.881 OFFCURVE",
"333.73 620.846 OFFCURVE",
"417.581 615.338 CURVE",
"378.56 714.778 LINE",
"307.295 717.512 OFFCURVE",
"212.883 695.876 OFFCURVE",
"143.822 599.838 CURVE",
"83.6649 516.848 OFFCURVE",
"55 430.853 OFFCURVE",
"55 315 CURVE",
"55 232.829 LINE",
"171.308 226.145 LINE"
);
},
{
closed = 1;
nodes = (
"295.996 370.778 LINE",
"297.996 460.778 LINE",
"283 471 LINE",
"280 471 OFFCURVE",
"277 471 OFFCURVE",
"274 471 CURVE",
"177.644 471 OFFCURVE",
"116 381.837 OFFCURVE",
"116 242 CURVE",
"116 211.666 OFFCURVE",
"178 143.78 OFFCURVE",
"178 235 CURVE",
"178 308.526 OFFCURVE",
"207.403 361 OFFCURVE",
"275 361 CURVE",
"277 361 OFFCURVE",
"279 361 OFFCURVE",
"281 361 CURVE"
);
}
);
width = 558;
}
);
unicode = 0036;
},
{
glyphname = eight;
lastChange = "2016-12-21 09:22:52 +0000";
layers = (
{
background = {
paths = (
{
closed = 1;
nodes = (
"80 468 OFFCURVE",
"100 403 OFFCURVE",
"150 380 CURVE",
"109 345 OFFCURVE",
"70 322 OFFCURVE",
"70 199 CURVE SMOOTH",
"70 53 OFFCURVE",
"160 -12 OFFCURVE",
"279 -12 CURVE SMOOTH",
"399 -12 OFFCURVE",
"490 61 OFFCURVE",
"490 199 CURVE SMOOTH",
"490 309 OFFCURVE",
"448 353 OFFCURVE",
"407 378 CURVE",
"448 399 OFFCURVE",
"480 465 OFFCURVE",
"480 515 CURVE SMOOTH",
"480 645 OFFCURVE",
"396 709 OFFCURVE",
"279 709 CURVE SMOOTH",
"152 709 OFFCURVE",
"80 645 OFFCURVE",
"80 515 CURVE SMOOTH"
);
},
{
closed = 1;
nodes = (
"166 297 OFFCURVE",
"213 342 OFFCURVE",
"280 342 CURVE SMOOTH",
"347 342 OFFCURVE",
"392 296 OFFCURVE",
"392 207 CURVE SMOOTH",
"392 199 LINE SMOOTH",
"392 127 OFFCURVE",
"349 78 OFFCURVE",
"280 78 CURVE SMOOTH",
"212 78 OFFCURVE",
"166 126 OFFCURVE",
"166 199 CURVE SMOOTH"
);
},
{
closed = 1;
nodes = (
"176 579 OFFCURVE",
"213 618 OFFCURVE",
"280 618 CURVE SMOOTH",
"347 618 OFFCURVE",
"382 577 OFFCURVE",
"382 522 CURVE SMOOTH",
"382 515 LINE SMOOTH",
"382 463 OFFCURVE",
"349 414 OFFCURVE",
"280 414 CURVE SMOOTH",
"279 414 LINE",
"208 414 OFFCURVE",
"176 461 OFFCURVE",
"176 515 CURVE SMOOTH"
);
}
);
};
layerId = "7EBE3D46-E53E-419E-A3EC-596DA2EA1E0D";
name = Regular;
paths = (
{
closed = 1;
nodes = (
"65 471.359 OFFCURVE",
"82.9623 409.197 OFFCURVE",
"129.645 378.699 CURVE",
"91.3365 346.784 OFFCURVE",
"55 315.519 OFFCURVE",
"55 199 CURVE",
"55 49.3837 OFFCURVE",
"153.839 -22 OFFCURVE",
"279 -22 CURVE",
"405.644 -22 OFFCURVE",
"505 57.7031 OFFCURVE",
"505 199 CURVE",
"505 300.53 OFFCURVE",
"467.861 349.385 OFFCURVE",
"427.89 377.92 CURVE",
"467.448 407.453 OFFCURVE",
"495 469.008 OFFCURVE",
"495 515 CURVE",
"495 648.452 OFFCURVE",
"402.406 719 OFFCURVE",
"279 719 CURVE",
"144.876 719 OFFCURVE",
"65 647.999 OFFCURVE",
"65 515 CURVE"
);
},
{
closed = 1;
nodes = (
"181 292.165 OFFCURVE",
"222.538 332 OFFCURVE",
"280 332 CURVE",
"337.154 332 OFFCURVE",
"377 291.334 OFFCURVE",
"377 207 CURVE",
"377 199 LINE",
"377 131.406 OFFCURVE",
"338.649 88 OFFCURVE",
"280 88 CURVE",
"221.942 88 OFFCURVE",
"181 130.623 OFFCURVE",
"181 199 CURVE"
);
},
{
closed = 1;
nodes = (
"191 574.395 OFFCURVE",
"222.99 608 OFFCURVE",
"280 608 CURVE",
"336.52 608 OFFCURVE",
"367 572.642 OFFCURVE",
"367 522 CURVE",
"367 515 LINE",
"367 466.864 OFFCURVE",
"337.466 424 OFFCURVE",
"280 424 CURVE",
"279 424 LINE",
"219.485 424 OFFCURVE",
"191 464.881 OFFCURVE",
"191 515 CURVE"
);
}
);
width = 560;
}
);
unicode = 0038;
},
{
glyphname = asterisk;
lastChange = "2016-12-21 09:22:52 +0000";
layers = (
{
background = {
paths = (
{
closed = 1;
nodes = (
"260 532 LINE",
"349 582 LINE",
"320 633 LINE",
"235 581 LINE",
"235 683 LINE",
"178 683 LINE",
"178 579 LINE",
"94 633 LINE",
"70 583 LINE",
"158 533 LINE",
"70 483 LINE",
"97 434 LINE",
"183 485 LINE",
"183 383 LINE",
"240 383 LINE",
"240 485 LINE",
"325 434 LINE",
"348 484 LINE"
);
}
);
};
layerId = "7EBE3D46-E53E-419E-A3EC-596DA2EA1E0D";
name = Regular;
paths = (
{
closed = 1;
nodes = (
"283.069 532.114 LINE",
"366.549 579.013 LINE",
"326.14 650.076 LINE",
"250 603.496 LINE",
"250 693 LINE",
"163 693 LINE",
"163 602.269 LINE",
"87.0769 651.077 LINE",
"52.8759 579.825 LINE",
"135.287 533 LINE",
"52.5542 485.993 LINE",
"90.5504 417.037 LINE",
"168 462.966 LINE",
"168 373 LINE",
"255 373 LINE",
"255 462.795 LINE",
"332.426 416.339 LINE",
"365.1 487.37 LINE"
);
}
);
width = 419;
}
);
unicode = 002A;
},
{
glyphname = bullet;
lastChange = "2016-12-21 09:22:52 +0000";
layers = (
{
background = {
paths = (
{
closed = 1;
nodes = (
"300 190 OFFCURVE",
"365 251 OFFCURVE",
"365 326 CURVE SMOOTH",
"365 403 OFFCURVE",
"300 464 OFFCURVE",
"218 464 CURVE SMOOTH",
"137 464 OFFCURVE",
"70 403 OFFCURVE",
"70 326 CURVE SMOOTH",
"70 251 OFFCURVE",
"137 190 OFFCURVE",
"218 190 CURVE SMOOTH"
);
}
);
};
layerId = "7EBE3D46-E53E-419E-A3EC-596DA2EA1E0D";
name = Regular;
paths = (
{
closed = 1;
nodes = (
"307.379 180 OFFCURVE",
"380 248.152 OFFCURVE",
"380 326 CURVE",
"380 405.848 OFFCURVE",
"307.379 474 OFFCURVE",
"218 474 CURVE",
"129.764 474 OFFCURVE",
"55 405.932 OFFCURVE",
"55 326 CURVE",
"55 248.068 OFFCURVE",
"129.764 180 OFFCURVE",
"218 180 CURVE"
);
}
);
width = 435;
}
);
unicode = 2022;
},
{
glyphname = numbersign;
lastChange = "2016-12-21 09:22:52 +0000";
layers = (
{
background = {
paths = (
{
closed = 1;
nodes = (
"605 287 LINE",
"502 287 LINE",
"519 454 LINE",
"627 454 LINE",
"634 545 LINE",
"529 545 LINE",
"544 700 LINE",
"454 700 LINE",
"440 545 LINE",
"312 545 LINE",
"327 700 LINE",
"238 700 LINE",
"224 545 LINE",
"104 545 LINE",
"97 454 LINE",
"213 454 LINE",
"197 287 LINE",
"76 287 LINE",
"70 197 LINE",
"188 197 LINE",
"168 0 LINE",
"257 0 LINE",
"277 197 LINE",
"404 197 LINE",
"384 0 LINE",
"473 0 LINE",
"493 197 LINE",
"600 197 LINE"
);
},
{
closed = 1;
nodes = (
"286 287 LINE",
"303 454 LINE",
"430 454 LINE",
"413 287 LINE"
);
}
);
};
layerId = "7EBE3D46-E53E-419E-A3EC-596DA2EA1E0D";
name = Regular;
paths = (
{
closed = 1;
nodes = (
"620.563 297 LINE",
"518.044 297 LINE",
"533.008 444 LINE",
"641.246 444 LINE",
"649.784 555 LINE",
"544.991 555 LINE",
"559.991 710 LINE",
"439.883 710 LINE",
"425.883 555 LINE",
"327.991 555 LINE",
"342.991 710 LINE",
"223.883 710 LINE",
"209.883 555 LINE",
"89.7544 555 LINE",
"81.216 444 LINE",
"197.019 444 LINE",
"182.935 297 LINE",
"61.6555 297 LINE",
"54.3222 187 LINE",
"171.959 187 LINE",
"151.959 -10 LINE",
"271.011 -10 LINE",
"291.011 187 LINE",
"387.959 187 LINE",
"367.959 -10 LINE",
"487.011 -10 LINE",
"507.011 187 LINE",
"614.452 187 LINE"
);
},
{
closed = 1;
nodes = (
"302.044 297 LINE",
"317.008 444 LINE",
"413.956 444 LINE",
"398.992 297 LINE"
);
}
);
width = 704;
}
);
unicode = 0023;
},
{
glyphname = question;
lastChange = "2016-12-21 09:22:52 +0000";
layers = (
{
background = {
paths = (
{
closed = 1;
nodes = (
"188 223 LINE",
"188 223 OFFCURVE",
"237 233 OFFCURVE",
"293 220 CURVE",
"430 408 OFFCURVE",
"453 449 OFFCURVE",
"453 538 CURVE SMOOTH",
"453 644 OFFCURVE",
"384 716 OFFCURVE",
"239 716 CURVE SMOOTH",
"193 716 OFFCURVE",
"127 707 OFFCURVE",
"75 671 CURVE",
"93 581 LINE",
"134 602 OFFCURVE",
"182 622 OFFCURVE",
"238 622 CURVE SMOOTH",
"328 622 OFFCURVE",
"351 578 OFFCURVE",
"351 530 CURVE SMOOTH",
"351 465 OFFCURVE",
"328 423 OFFCURVE",
"230 282 CURVE"
);
}
);
};
components = (
{
name = _dot;
transform = "{1, 0, 0, 1, 104, -609}";
}
);
layerId = "7EBE3D46-E53E-419E-A3EC-596DA2EA1E0D";
name = Regular;
paths = (
{
closed = 1;
nodes = (
"175.78 228.799 LINE",
"190.88 213.186 LINE",
"190.88 213.177 OFFCURVE",
"243.067 223.828 OFFCURVE",
"300.3 207.497 CURVE",
"443.304 403.515 OFFCURVE",
"468 446.488 OFFCURVE",
"468 538 CURVE",
"468 646.568 OFFCURVE",
"391.877 726 OFFCURVE",
"239 726 CURVE",
"189.495 726 OFFCURVE",
"113.329 715.307 OFFCURVE",
"59.297 674.01 CURVE",
"81.5901 562.545 LINE",
"129.506 588.038 OFFCURVE",
"178.382 612 OFFCURVE",
"238 612 CURVE",
"317.462 612 OFFCURVE",
"336 576.547 OFFCURVE",
"336 530 CURVE",
"336 466.437 OFFCURVE",
"314.06 426.372 OFFCURVE",
"217.683 287.707 CURVE"
);
}
);
width = 518;
}
);
unicode = 003F;
},
{
glyphname = braceleft;
lastChange = "2016-12-21 09:22:52 +0000";
layers = (
{
background = {
paths = (
{
closed = 1;
nodes = (
"439 -105 LINE",
"410 -105 LINE SMOOTH",
"336 -105 OFFCURVE",
"302 -68 OFFCURVE",
"309 8 CURVE",
"309 153 LINE SMOOTH",
"309 235 OFFCURVE",
"274 279 OFFCURVE",
"205 285 CURVE",
"274 296 OFFCURVE",
"308 340 OFFCURVE",
"308 420 CURVE SMOOTH",
"308 511 LINE",
"301 585 OFFCURVE",
"335 621 OFFCURVE",
"410 621 CURVE SMOOTH",
"439 621 LINE",
"439 713 LINE",
"393 713 LINE SMOOTH",
"257 713 OFFCURVE",
"207 643 OFFCURVE",
"207 533 CURVE SMOOTH",
"207 429 LINE SMOOTH",
"207 361 OFFCURVE",
"187 331 OFFCURVE",
"91 331 CURVE SMOOTH",
"70 331 LINE",
"70 241 LINE",
"91 241 LINE SMOOTH",
"181 241 OFFCURVE",
"207 204 OFFCURVE",
"207 141 CURVE SMOOTH",
"207 -17 LINE SMOOTH",
"207 -136 OFFCURVE",
"269 -195 OFFCURVE",
"393 -195 CURVE SMOOTH",
"439 -195 LINE"
);
}
);
};
layerId = "7EBE3D46-E53E-419E-A3EC-596DA2EA1E0D";
name = Regular;
paths = (
{
closed = 1;
nodes = (
"454 -95 LINE",
"410 -95 LINE",
"346.132 -95 OFFCURVE",
"317.414 -63.7386 OFFCURVE",
"323.937 7.08283 CURVE",
"324 8 LINE",
"324 153 LINE",
"324 206.889 OFFCURVE",
"307.308 247.243 OFFCURVE",
"275.063 271.049 CURVE",
"275.531 303.026 LINE",
"307.03 327.963 OFFCURVE",
"323 367.56 OFFCURVE",
"323 420 CURVE",
"323 511 LINE",
"322.933 511.942 LINE",
"316.431 580.676 OFFCURVE",
"345.003 611 OFFCURVE",
"410 611 CURVE",
"454 611 LINE",
"454 723 LINE",
"393 723 LINE",
"247.785 723 OFFCURVE",
"192 644.901 OFFCURVE",
"192 533 CURVE",
"192 429 LINE",
"192 364.827 OFFCURVE",
"175.443 341 OFFCURVE",
"91 341 CURVE",
"55 341 LINE",
"55 231 LINE",
"91 231 LINE",
"169.666 231 OFFCURVE",
"192 200.068 OFFCURVE",
"192 141 CURVE",
"192 -17 LINE",
"192 -138.81 OFFCURVE",
"261.556 -205 OFFCURVE",
"393 -205 CURVE",
"454 -205 LINE"
);
}
);
width = 509;
}
);
unicode = 007B;
},
{
glyphname = braceright;
lastChange = "2016-12-21 09:22:52 +0000";
layers = (
{
background = {
paths = (
{
closed = 1;
nodes = (
"116 -194 LINE SMOOTH",
"240 -194 OFFCURVE",
"302 -135 OFFCURVE",
"302 -16 CURVE SMOOTH",
"302 142 LINE SMOOTH",
"302 205 OFFCURVE",
"328 242 OFFCURVE",
"418 242 CURVE SMOOTH",
"439 242 LINE",
"439 332 LINE",
"418 332 LINE SMOOTH",
"322 332 OFFCURVE",
"302 362 OFFCURVE",
"302 430 CURVE SMOOTH",
"302 534 LINE SMOOTH",
"302 644 OFFCURVE",
"252 714 OFFCURVE",
"116 714 CURVE SMOOTH",
"70 714 LINE",
"70 622 LINE",
"99 622 LINE SMOOTH",
"174 622 OFFCURVE",
"208 586 OFFCURVE",
"201 512 CURVE",
"201 421 LINE SMOOTH",
"201 341 OFFCURVE",
"235 297 OFFCURVE",
"304 286 CURVE",
"235 280 OFFCURVE",
"200 236 OFFCURVE",
"200 154 CURVE SMOOTH",
"200 9 LINE",
"207 -67 OFFCURVE",
"173 -104 OFFCURVE",
"99 -104 CURVE SMOOTH",
"70 -104 LINE",
"70 -194 LINE"
);
}
);
};
layerId = "7EBE3D46-E53E-419E-A3EC-596DA2EA1E0D";
name = Regular;
paths = (
{
closed = 1;
nodes = (
"116 -204 LINE",
"247.444 -204 OFFCURVE",
"317 -137.81 OFFCURVE",
"317 -16 CURVE",
"317 142 LINE",
"317 201.068 OFFCURVE",
"339.334 232 OFFCURVE",
"418 232 CURVE",
"454 232 LINE",
"454 342 LINE",
"418 342 LINE",
"333.557 342 OFFCURVE",
"317 365.827 OFFCURVE",
"317 430 CURVE",
"317 534 LINE",
"317 645.901 OFFCURVE",
"261.215 724 OFFCURVE",
"116 724 CURVE",
"55 724 LINE",
"55 612 LINE",
"99 612 LINE",
"163.997 612 OFFCURVE",
"192.569 581.676 OFFCURVE",
"186.067 512.942 CURVE",
"186 512 LINE",
"186 421 LINE",
"186 368.56 OFFCURVE",
"201.97 328.963 OFFCURVE",
"233.469 304.026 CURVE",
"233.937 272.049 LINE",
"201.692 248.243 OFFCURVE",
"185 207.889 OFFCURVE",
"185 154 CURVE",
"185 9 LINE",
"185.063 8.08283 LINE",
"191.586 -62.7386 OFFCURVE",
"162.868 -94 OFFCURVE",
"99 -94 CURVE",
"55 -94 LINE",
"55 -204 LINE"
);
}
);
width = 509;
}
);
unicode = 007D;
},
{
glyphname = currency;
lastChange = "2016-12-21 09:22:52 +0000";
layers = (
{
background = {
paths = (
{
closed = 1;
nodes = (
"142 578 LINE",
"70 507 LINE",
"146 429 LINE",
"144 424 LINE",
"137 407 OFFCURVE",
"133 389 OFFCURVE",
"133 369 CURVE SMOOTH",
"133 350 OFFCURVE",
"137 332 OFFCURVE",
"144 314 CURVE",
"145 311 OFFCURVE",
"145 309 OFFCURVE",
"146 308 CURVE",
"72 233 LINE",
"144 162 LINE",
"222 239 LINE",
"240 232 OFFCURVE",
"259 229 OFFCURVE",
"279 229 CURVE SMOOTH",
"300 229 OFFCURVE",
"319 232 OFFCURVE",
"337 239 CURVE",
"419 157 LINE",
"491 229 LINE",
"411 308 LINE",
"412 310 OFFCURVE",
"413 312 OFFCURVE",
"415 314 CURVE",
"423 332 OFFCURVE",
"427 350 OFFCURVE",
"427 369 CURVE SMOOTH",
"427 389 OFFCURVE",
"423 407 OFFCURVE",
"415 424 CURVE",
"413 425 OFFCURVE",
"413 427 OFFCURVE",
"412 429 CURVE",
"495 513 LINE",
"423 584 LINE",
"337 498 LINE",
"337 499 LINE",
"319 507 OFFCURVE",
"300 510 OFFCURVE",
"279 510 CURVE SMOOTH",
"259 510 OFFCURVE",
"240 507 OFFCURVE",
"222 499 CURVE",
"221 498 LINE"
);
},
{
closed = 1;
nodes = (
"326 438 OFFCURVE",
"363 387 OFFCURVE",
"342 342 CURVE",
"332 318 OFFCURVE",
"308 301 OFFCURVE",
"279 301 CURVE SMOOTH",
"260 301 OFFCURVE",
"243 306 OFFCURVE",
"230 320 CURVE SMOOTH",
"217 333 OFFCURVE",
"211 350 OFFCURVE",
"211 369 CURVE SMOOTH",
"211 378 OFFCURVE",
"213 387 OFFCURVE",
"217 395 CURVE SMOOTH",
"229 422 OFFCURVE",
"251 438 OFFCURVE",
"279 438 CURVE SMOOTH"
);
}
);
};
layerId = "7EBE3D46-E53E-419E-A3EC-596DA2EA1E0D";
name = Regular;
paths = (
{
closed = 1;
nodes = (
"142.164 595.668 LINE",
"52.3541 507.105 LINE",
"129.967 427.45 LINE",
"130.073 427.714 LINE",
"122.242 408.652 OFFCURVE",
"118 389.562 OFFCURVE",
"118 369 CURVE",
"118 349.438 OFFCURVE",
"122.228 330.412 OFFCURVE",
"130.02 310.376 CURVE",
"129.77 310.838 LINE",
"129.831 310.653 OFFCURVE",
"129.876 310.244 OFFCURVE",
"130.012 309.642 CURVE",
"54.3209 232.927 LINE",
"144.007 144.487 LINE",
"226.778 226.198 LINE",
"242.916 221.402 OFFCURVE",
"261.299 219 OFFCURVE",
"279 219 CURVE",
"297.495 219 OFFCURVE",
"315.998 221.395 OFFCURVE",
"332.145 226.177 CURVE",
"419 139.322 LINE",
"508.711 229.034 LINE",
"421.54 315.115 LINE",
"424.416 303.528 LINE",
"425.215 305.125 OFFCURVE",
"426.148 306.99 OFFCURVE",
"427.376 308.63 CURVE",
"437.76 330.36 OFFCURVE",
"442 349.491 OFFCURVE",
"442 369 CURVE",
"442 390.508 OFFCURVE",
"437.318 410.585 OFFCURVE",
"427.055 430.834 CURVE",
"426.572 431.259 OFFCURVE",
"426.079 432.146 OFFCURVE",
"425.416 433.472 CURVE",
"422.67 421.971 LINE",
"512.683 513.069 LINE",
"422.914 601.591 LINE",
"352 530.678 LINE",
"352 503.608 LINE",
"332.308 515.046 OFFCURVE",
"305.347 520 OFFCURVE",
"279 520 CURVE",
"255.581 520 OFFCURVE",
"230.451 515.714 OFFCURVE",
"211.235 505.913 CURVE",
"221.078 515.756 LINE"
);
},
{
closed = 1;
nodes = (
"314.753 428 OFFCURVE",
"346.224 384.409 OFFCURVE",
"328.407 346.229 CURVE",
"318.537 322.765 OFFCURVE",
"301.927 311 OFFCURVE",
"279 311 CURVE",
"262.851 311 OFFCURVE",
"252.969 313.907 OFFCURVE",
"240.992 326.805 CURVE",
"231.033 336.644 OFFCURVE",
"226 350.905 OFFCURVE",
"226 369 CURVE",
"226 377.438 OFFCURVE",
"227.703 385.101 OFFCURVE",
"230.416 390.528 CURVE",
"230.707 390.939 LINE",
"242.396 417.239 OFFCURVE",
"257.193 428 OFFCURVE",
"279 428 CURVE"
);
}
);
width = 565;
}
);
unicode = 00A4;
},
{
glyphname = infinity;
lastChange = "2016-12-21 09:22:52 +0000";
layers = (
{
background = {
paths = (
{
closed = 1;
nodes = (
"341 156 OFFCURVE",
"411 193 OFFCURVE",
"434 243 CURVE",
"458 193 OFFCURVE",
"486 153 OFFCURVE",
"588 152 CURVE SMOOTH",
"724 151 OFFCURVE",
"800 240 OFFCURVE",
"801 359 CURVE SMOOTH",
"802 479 OFFCURVE",
"719 572 OFFCURVE",
"591 572 CURVE SMOOTH",
"522 572 OFFCURVE",
"458 531 OFFCURVE",
"433 490 CURVE",
"412 531 OFFCURVE",
"346 572 OFFCURVE",
"275 572 CURVE SMOOTH",
"145 572 OFFCURVE",
"71 481 OFFCURVE",
"70 364 CURVE SMOOTH",
"69 237 OFFCURVE",
"143 156 OFFCURVE",
"273 156 CURVE SMOOTH"
);
},
{
closed = 1;
nodes = (
"512 249 OFFCURVE",
"467 296 OFFCURVE",
"468 363 CURVE SMOOTH",
"468 430 OFFCURVE",
"515 474 OFFCURVE",
"583 474 CURVE SMOOTH",
"591 474 LINE SMOOTH",
"663 473 OFFCURVE",
"711 430 OFFCURVE",
"711 361 CURVE SMOOTH",
"710 293 OFFCURVE",
"662 247 OFFCURVE",
"589 248 CURVE SMOOTH"
);
},
{
closed = 1;
nodes = (
"196 250 OFFCURVE",
"160 298 OFFCURVE",
"161 365 CURVE SMOOTH",
"161 432 OFFCURVE",
"199 477 OFFCURVE",
"268 476 CURVE SMOOTH",
"275 476 LINE SMOOTH",
"348 476 OFFCURVE",
"396 432 OFFCURVE",
"396 363 CURVE SMOOTH",
"396 362 LINE",
"396 356 LINE SMOOTH",
"395 293 OFFCURVE",
"346 250 OFFCURVE",
"273 250 CURVE SMOOTH"
);
}
);
};
layerId = "7EBE3D46-E53E-419E-A3EC-596DA2EA1E0D";
name = Regular;
paths = (
{
closed = 1;
nodes = (
"334.431 146 OFFCURVE",
"399.625 175.382 OFFCURVE",
"432.755 215.51 CURVE",
"456.444 175.993 OFFCURVE",
"494.474 142.916 OFFCURVE",
"587.853 142 CURVE",
"732.36 140.938 OFFCURVE",
"814.981 237.691 OFFCURVE",
"815.999 358.916 CURVE",
"817.02 481.369 OFFCURVE",
"727.209 582 OFFCURVE",
"591 582 CURVE",
"527.061 582 OFFCURVE",
"465.792 548.615 OFFCURVE",
"433.709 513.066 CURVE",
"403.303 548.79 OFFCURVE",
"340.262 582 OFFCURVE",
"275 582 CURVE",
"136.364 582 OFFCURVE",
"56.0186 483.197 OFFCURVE",
"55 364.085 CURVE",
"53.9807 234.573 OFFCURVE",
"134.9 146 OFFCURVE",
"273 146 CURVE"
);
},
{
closed = 1;
nodes = (
"522.035 258.871 OFFCURVE",
"482.069 300.585 OFFCURVE",
"482.998 362.851 CURVE",
"483 425.085 OFFCURVE",
"524.431 464 OFFCURVE",
"583 464 CURVE",
"591 464 LINE",
"653.67 463.128 OFFCURVE",
"696 424.964 OFFCURVE",
"696 361 CURVE",
"695.071 297.89 OFFCURVE",
"652.571 257.131 OFFCURVE",
"589.205 257.999 CURVE"
);
},
{
closed = 1;
nodes = (
"207.057 260 OFFCURVE",
"175.061 302.02 OFFCURVE",
"175.998 364.851 CURVE",
"176 427.68 OFFCURVE",
"209.424 466.847 OFFCURVE",
"267.783 466 CURVE",
"275 466 LINE",
"338.673 466 OFFCURVE",
"381 427.029 OFFCURVE",
"381 363 CURVE",
"381 362 LINE",
"381 356 LINE",
"380.081 298.142 OFFCURVE",
"336.878 260 OFFCURVE",
"273 260 CURVE"
);
}
);
width = 871;
}
);
unicode = 221E;
},
{
glyphname = percent;
lastChange = "2016-12-21 09:22:52 +0000";
layers = (
{
background = {
paths = (
{
closed = 1;
nodes = (
"545 700 LINE SMOOTH",
"126 24 LINE",
"126 1 LINE",
"210 1 LINE",
"631 676 LINE SMOOTH",
"631 700 LINE"
);
}
);
};
components = (
{
name = _percent;
transform = "{1, 0, 0, 1, 390, -251}";
},
{
name = _percent;
transform = "{1, 0, 0, 1, 69, 192}";
}
);
layerId = "7EBE3D46-E53E-419E-A3EC-596DA2EA1E0D";
name = Regular;
paths = (
{
closed = 1;
nodes = (
"535.183 710 LINE",
"111 25.6375 LINE",
"111 -9 LINE",
"219.791 -9 LINE",
"646 674.352 LINE",
"646 710 LINE"
);
}
);
width = 696;
}
);
unicode = 0025;
},
{
glyphname = radical;
lastChange = "2016-12-21 09:22:52 +0000";
layers = (
{
background = {
paths = (
{
closed = 1;
nodes = (
"70 395 LINE SMOOTH",
"229 -86 LINE",
"277 -86 LINE",
"304 3 LINE",
"162 429 LINE SMOOTH",
"70 429 LINE"
);
}
);
};
components = (
{
name = _EF_horizontal;
transform = "{1, 0, 0, 1, 324, 308}";
},
{
name = _backslash;
transform = "{-1, 0, 0, 1, 595, 1}";
}
);
layerId = "7EBE3D46-E53E-419E-A3EC-596DA2EA1E0D";
name = Regular;
paths = (
{
closed = 1;
nodes = (
"55 394.154 LINE",
"217.026 -96 LINE",
"289.201 -96 LINE",
"319.258 3.07795 LINE",
"173.951 439 LINE",
"55 439 LINE"
);
}
);
width = 730;
}
);
unicode = 221A;
},
{
glyphname = summation;
lastChange = "2016-12-21 09:22:52 +0000";
layers = (
{
background = {
paths = (
{
closed = 1;
nodes = (
"378 352 LINE",
"332 281 LINE",
"333 424 LINE"
);
}
);
};
components = (
{
name = _EF_horizontal;
transform = "{1, 0, 0, 1, 149, 313}";
},
{
name = _EF_horizontal;
transform = "{1, 0, 0, 1, -1, 313}";
},
{
name = _X;
transform = "{-1, 0, 0, 1, 625, 8}";
},
{
name = _EF_horizontal;
transform = "{1, 0, -0, -1, 149, 392}";
},
{
name = _EF_horizontal;
transform = "{1, 0, -0, -1, -1, 392}";
},
{
name = _X;
transform = "{-1, 0, -0, -1, 625, 697}";
}
);
layerId = "7EBE3D46-E53E-419E-A3EC-596DA2EA1E0D";
name = Regular;
paths = (
{
closed = 1;
nodes = (
"361.929 352.062 LINE",
"347.34 329.544 LINE",
"347.657 374.897 LINE"
);
}
);
width = 555;
}
);
unicode = 2211;
},
{
glyphname = at;
lastChange = "2016-12-21 09:22:52 +0000";
layers = (
{
background = {
paths = (
{
closed = 1;
nodes = (
"586 93 LINE",
"679 93 LINE",
"722 501 LINE",
"629 501 LINE"
);
},
{
closed = 1;
nodes = (
"626 463 LINE",
"598 502 OFFCURVE",
"550 514 OFFCURVE",
"504 514 CURVE SMOOTH",
"350 514 OFFCURVE",
"278 395 OFFCURVE",
"266 281 CURVE SMOOTH",
"259 211 LINE",
"247 85 OFFCURVE",
"315 -8 OFFCURVE",
"429 -8 CURVE SMOOTH",
"514 -8 OFFCURVE",
"563 36 OFFCURVE",
"587 87 CURVE"
);
},
{
closed = 1;
nodes = (
"357 271 LINE SMOOTH",
"365 352 OFFCURVE",
"402 429 OFFCURVE",
"495 429 CURVE SMOOTH",
"583 429 OFFCURVE",
"619 391 OFFCURVE",
"619 391 CURVE",
"607 281 LINE SMOOTH",
"599 210 OFFCURVE",
"577 76 OFFCURVE",
"438 76 CURVE SMOOTH",
"371 76 OFFCURVE",
"343 143 OFFCURVE",
"352 220 CURVE SMOOTH"
);
},
{
closed = 1;
nodes = (
"586 97 LINE",
"586 -78 OFFCURVE",
"773 -70 OFFCURVE",
"836 17 CURVE SMOOTH",
"882 81 OFFCURVE",
"913 158 OFFCURVE",
"913 268 CURVE SMOOTH",
"913 560 OFFCURVE",
"725 690 OFFCURVE",
"491 690 CURVE SMOOTH",
"259 690 OFFCURVE",
"90 553 OFFCURVE",
"90 268 CURVE SMOOTH",
"90 -17 OFFCURVE",
"259 -153 OFFCURVE",
"491 -153 CURVE SMOOTH",
"530 -153 OFFCURVE",
"569 -148 OFFCURVE",
"605 -138 CURVE",
"571 -53 LINE SMOOTH",
"543 -60 OFFCURVE",
"520 -64 OFFCURVE",
"490 -64 CURVE SMOOTH",
"301 -64 OFFCURVE",
"183 48 OFFCURVE",
"183 273 CURVE SMOOTH",
"183 500 OFFCURVE",
"301 604 OFFCURVE",
"490 604 CURVE SMOOTH",
"679 604 OFFCURVE",
"817 500 OFFCURVE",
"817 273 CURVE SMOOTH",
"817 214 OFFCURVE",
"806 154 OFFCURVE",
"782 106 CURVE SMOOTH",
"754 52 OFFCURVE",
"676 41 OFFCURVE",
"679 97 CURVE"
);
}
);
};
layerId = "7EBE3D46-E53E-419E-A3EC-596DA2EA1E0D";
name = Regular;
paths = (
{
closed = 1;
nodes = (
"569.918 83 LINE",
"692.974 83 LINE",
"738.082 511 LINE",
"615.026 511 LINE"
);
},
{
closed = 1;
nodes = (
"641.175 464.43 LINE",
"612.602 508.946 OFFCURVE",
"554.134 524 OFFCURVE",
"504 524 CURVE",
"338.085 524 OFFCURVE",
"263.379 398.866 OFFCURVE",
"251.082 282.047 CURVE",
"244.074 211.995 LINE",
"231.816 83.3042 OFFCURVE",
"305.888 -18 OFFCURVE",
"429 -18 CURVE",
"522.889 -18 OFFCURVE",
"578.629 33.6233 OFFCURVE",
"601.881 85.5937 CURVE"
);
},
{
closed = 1;
nodes = (
"371.928 270.024 LINE",
"379.674 348.451 OFFCURVE",
"414.844 419 OFFCURVE",
"495 419 CURVE",
"557.978 419 OFFCURVE",
"591.995 397.282 OFFCURVE",
"603.648 388.049 CURVE",
"592.088 282.084 LINE",
"584.047 210.699 OFFCURVE",
"563.574 86 OFFCURVE",
"438 86 CURVE",
"384.342 86 OFFCURVE",
"358.364 145.818 OFFCURVE",
"366.899 218.839 CURVE"
);
},
{
closed = 1;
nodes = (
"571.199 107 LINE",
"563.501 -88.9535 OFFCURVE",
"781.276 -81.2143 OFFCURVE",
"848.149 11.1349 CURVE",
"896.2 77.9733 OFFCURVE",
"928 156.961 OFFCURVE",
"928 268 CURVE",
"928 563.752 OFFCURVE",
"730.965 700 OFFCURVE",
"491 700 CURVE",
"252.307 700 OFFCURVE",
"75 556.266 OFFCURVE",
"75 268 CURVE",
"75 -20.2875 OFFCURVE",
"252.341 -163 OFFCURVE",
"491 -163 CURVE",
"536.447 -163 OFFCURVE",
"583.645 -156.201 OFFCURVE",
"622.63 -143.542 CURVE",
"581.118 -39.7625 LINE",
"545.068 -49.2247 OFFCURVE",
"522.633 -54 OFFCURVE",
"490 -54 CURVE",
"310.454 -54 OFFCURVE",
"198 52.8349 OFFCURVE",
"198 273 CURVE",
"198 494.959 OFFCURVE",
"310.106 594 OFFCURVE",
"490 594 CURVE",
"670.623 594 OFFCURVE",
"802 494.497 OFFCURVE",
"802 273 CURVE",
"802 214.462 OFFCURVE",
"791.244 155.793 OFFCURVE",
"768.584 110.472 CURVE",
"768.047 109.375 OFFCURVE",
"767.393 108.174 OFFCURVE",
"766.722 107 CURVE"
);
}
);
width = 983;
}
);
unicode = 0040;
},
{
glyphname = ampersand;
lastChange = "2016-12-21 09:22:52 +0000";
layers = (
{
background = {
paths = (
{
closed = 1;
nodes = (
"164 257 OFFCURVE",
"197 296 OFFCURVE",
"245 328 CURVE",
"408 120 LINE",
"374 87 OFFCURVE",
"337 71 OFFCURVE",
"292 71 CURVE SMOOTH",
"213 71 OFFCURVE",
"164 120 OFFCURVE",
"164 194 CURVE SMOOTH"
);
},
{
closed = 1;
nodes = (
"389 498 OFFCURVE",
"341 464 OFFCURVE",
"280 432 CURVE",
"266 450 LINE SMOOTH",
"235 489 OFFCURVE",
"222 517 OFFCURVE",
"222 556 CURVE SMOOTH",
"222 605 OFFCURVE",
"252 643 OFFCURVE",
"308 643 CURVE SMOOTH",
"357 644 OFFCURVE",
"389 613 OFFCURVE",
"389 561 CURVE SMOOTH"
);
},
{
closed = 1;
nodes = (
"609 21 LINE",
"524 124 LINE",
"557 184 OFFCURVE",
"581 257 OFFCURVE",
"581 312 CURVE",
"490 345 LINE",
"490 282 OFFCURVE",
"475 248 OFFCURVE",
"460 207 CURVE",
"326 374 LINE",
"403 419 OFFCURVE",
"481 464 OFFCURVE",
"481 570 CURVE SMOOTH",
"481 651 OFFCURVE",
"423 721 OFFCURVE",
"311 721 CURVE SMOOTH",
"194 721 OFFCURVE",
"129 647 OFFCURVE",
"129 547 CURVE SMOOTH",
"129 500 OFFCURVE",
"147 450 OFFCURVE",
"187 402 CURVE",
"198 386 LINE",
"131 343 OFFCURVE",
"70 291 OFFCURVE",
"70 183 CURVE SMOOTH",
"70 72 OFFCURVE",
"146 -7 OFFCURVE",
"279 -7 CURVE SMOOTH",
"350 -7 OFFCURVE",
"409 16 OFFCURVE",
"458 57 CURVE",
"504 0 LINE",
"609 0 LINE"
);
}
);
};
layerId = "7EBE3D46-E53E-419E-A3EC-596DA2EA1E0D";
name = Regular;
paths = (
{
closed = 1;
nodes = (
"179 249.139 OFFCURVE",
"203.635 283.334 OFFCURVE",
"241.422 311.332 CURVE",
"390.74 120.791 LINE",
"359.477 92.5532 OFFCURVE",
"330.186 81 OFFCURVE",
"292 81 CURVE",
"222.732 81 OFFCURVE",
"179 124.732 OFFCURVE",
"179 194 CURVE"
);
},
{
closed = 1;
nodes = (
"374 505.758 OFFCURVE",
"336.934 475.702 OFFCURVE",
"284.82 447.165 CURVE",
"277.84 456.139 LINE",
"248.976 492.412 OFFCURVE",
"237 518.207 OFFCURVE",
"237 556 CURVE",
"237 600.809 OFFCURVE",
"262.852 633 OFFCURVE",
"308 633 CURVE",
"347.539 633.803 OFFCURVE",
"374 608.16 OFFCURVE",
"374 561 CURVE"
);
},
{
closed = 1;
nodes = (
"624 23.2076 LINE",
"540.179 124.779 LINE",
"574.134 188.303 OFFCURVE",
"597.667 263.058 OFFCURVE",
"595.908 317.849 CURVE",
"474.66 361.818 LINE",
"476.99 302.64 OFFCURVE",
"467.02 268.271 OFFCURVE",
"454.75 234.382 CURVE",
"344.511 371.769 LINE",
"418.438 415.153 OFFCURVE",
"496 464.872 OFFCURVE",
"496 570 CURVE",
"496 653.217 OFFCURVE",
"431.551 731 OFFCURVE",
"311 731 CURVE",
"185.717 731 OFFCURVE",
"114 649.353 OFFCURVE",
"114 547 CURVE",
"114 513.412 OFFCURVE",
"123.248 477.676 OFFCURVE",
"143.463 441.682 CURVE",
"180.272 388.142 LINE",
"114.256 344.395 OFFCURVE",
"55 288.989 OFFCURVE",
"55 183 CURVE",
"55 69.4226 OFFCURVE",
"138.141 -17 OFFCURVE",
"279 -17 CURVE",
"347.598 -17 OFFCURVE",
"407.923 4.33331 OFFCURVE",
"455.301 39.6001 CURVE",
"495.329 -10 LINE",
"624 -10 LINE"
);
}
);
width = 679;
}
);
unicode = 0026;
},
{
glyphname = paragraph;
lastChange = "2016-12-21 09:22:52 +0000";
layers = (
{
background = {
paths = (
{
closed = 1;
nodes = (
"137 276 OFFCURVE",
"70 372 OFFCURVE",
"70 489 CURVE SMOOTH",
"70 606 OFFCURVE",
"154 699 OFFCURVE",
"343 699 CURVE SMOOTH",
"521 699 LINE",
"521 1 LINE",
"429 1 LINE",
"429 627 LINE",
"345 627 LINE",
"345 276 LINE"
);
}
);
};
layerId = "7EBE3D46-E53E-419E-A3EC-596DA2EA1E0D";
name = Regular;
paths = (
{
closed = 1;
nodes = (
"145.1 290.667 OFFCURVE",
"85 378.816 OFFCURVE",
"85 489 CURVE",
"85 601.546 OFFCURVE",
"164.175 689 OFFCURVE",
"343 689 CURVE",
"506 689 LINE",
"506 11 LINE",
"444 11 LINE",
"444 637 LINE",
"330 637 LINE",
"330 286.179 LINE"
);
}
);
width = 591;
}
);
unicode = 00B6;
},
{
glyphname = section;
lastChange = "2016-12-21 09:22:52 +0000";
layers = (
{
background = {
paths = (
{
closed = 1;
nodes = (
"505 93 OFFCURVE",
"538 153 OFFCURVE",
"538 212 CURVE SMOOTH",
"538 405 OFFCURVE",
"225 449 OFFCURVE",
"225 549 CURVE SMOOTH",
"225 571 OFFCURVE",
"232 581 OFFCURVE",
"253 595 CURVE SMOOTH",
"273 609 OFFCURVE",
"304 619 OFFCURVE",
"351 619 CURVE SMOOTH",
"393 619 OFFCURVE",
"431 614 OFFCURVE",
"478 602 CURVE",
"478 695 LINE",
"438 703 OFFCURVE",
"395 708 OFFCURVE",
"353 708 CURVE SMOOTH",
"175 708 OFFCURVE",
"126 610 OFFCURVE",
"126 540 CURVE SMOOTH",
"126 500 OFFCURVE",
"146 470 OFFCURVE",
"167 453 CURVE",
"103 416 OFFCURVE",
"70 349 OFFCURVE",
"70 295 CURVE SMOOTH",
"70 103 OFFCURVE",
"386 56 OFFCURVE",
"386 -38 CURVE SMOOTH",
"386 -93 OFFCURVE",
"341 -114 OFFCURVE",
"249 -114 CURVE SMOOTH",
"188 -114 OFFCURVE",
"143 -105 OFFCURVE",
"88 -88 CURVE",
"88 -187 LINE",
"139 -199 OFFCURVE",
"177 -206 OFFCURVE",
"253 -206 CURVE SMOOTH",
"358 -206 OFFCURVE",
"484 -154 OFFCURVE",
"484 -32 CURVE SMOOTH",
"484 3 OFFCURVE",
"465 35 OFFCURVE",
"442 54 CURVE"
);
},
{
closed = 1;
nodes = (
"281 164 OFFCURVE",
"164 214 OFFCURVE",
"164 303 CURVE SMOOTH",
"164 333 OFFCURVE",
"188 381 OFFCURVE",
"231 402 CURVE",
"323 341 OFFCURVE",
"445 294 OFFCURVE",
"445 204 CURVE SMOOTH",
"445 173 OFFCURVE",
"421 126 OFFCURVE",
"376 103 CURVE"
);
}
);
};
layerId = "7EBE3D46-E53E-419E-A3EC-596DA2EA1E0D";
name = Regular;
paths = (
{
closed = 1;
nodes = (
"521.686 94.8184 OFFCURVE",
"553 155.006 OFFCURVE",
"553 212 CURVE",
"553 413.088 OFFCURVE",
"240 457.088 OFFCURVE",
"240 549 CURVE",
"240 569.139 OFFCURVE",
"244.366 575.377 OFFCURVE",
"261.321 586.679 CURVE",
"281.508 600.742 OFFCURVE",
"307.108 609 OFFCURVE",
"351 609 CURVE",
"396.914 609 OFFCURVE",
"436.284 603.045 OFFCURVE",
"493 587.32 CURVE",
"493 702.277 LINE",
"450.314 711.65 OFFCURVE",
"400.571 718 OFFCURVE",
"353 718 CURVE",
"164.348 718 OFFCURVE",
"111 611.305 OFFCURVE",
"111 540 CURVE",
"111 504.043 OFFCURVE",
"127.434 474.39 OFFCURVE",
"147.565 454.239 CURVE",
"86.0747 413.183 OFFCURVE",
"55 347.022 OFFCURVE",
"55 295 CURVE",
"55 95.0116 OFFCURVE",
"371 48.0116 OFFCURVE",
"371 -38 CURVE",
"371 -85.9011 OFFCURVE",
"334.622 -104 OFFCURVE",
"249 -104 CURVE",
"183.271 -104 OFFCURVE",
"138.505 -93.5548 OFFCURVE",
"73 -72.2761 CURVE",
"73 -193.984 LINE",
"129.096 -207.429 OFFCURVE",
"169.325 -216 OFFCURVE",
"253 -216 CURVE",
"361.89 -216 OFFCURVE",
"499 -159.415 OFFCURVE",
"499 -32 CURVE",
"499 0 OFFCURVE",
"482.98 30.9765 OFFCURVE",
"461.198 52.9021 CURVE"
);
},
{
closed = 1;
nodes = (
"284.104 174.446 OFFCURVE",
"179 221.508 OFFCURVE",
"179 303 CURVE",
"179 327.63 OFFCURVE",
"199.217 369.245 OFFCURVE",
"230.107 388.827 CURVE",
"320.389 330.537 OFFCURVE",
"430 286.114 OFFCURVE",
"430 204 CURVE",
"430 178.342 OFFCURVE",
"409.59 137.108 OFFCURVE",
"376.627 116.169 CURVE"
);
}
);
width = 608;
}
);
unicode = 00A7;
},
{
glyphname = degree;
lastChange = "2016-12-21 09:22:52 +0000";
layers = (
{
background = {
paths = (
{
closed = 1;
nodes = (
"293 427 OFFCURVE",
"357 491 OFFCURVE",
"357 571 CURVE SMOOTH",
"357 650 OFFCURVE",
"293 714 OFFCURVE",
"214 714 CURVE SMOOTH",
"134 714 OFFCURVE",
"70 650 OFFCURVE",
"70 571 CURVE SMOOTH",
"70 491 OFFCURVE",
"134 427 OFFCURVE",
"214 427 CURVE SMOOTH"
);
},
{
closed = 1;
nodes = (
"171 493 OFFCURVE",
"137 528 OFFCURVE",
"137 572 CURVE SMOOTH",
"137 614 OFFCURVE",
"171 649 OFFCURVE",
"215 649 CURVE SMOOTH",
"258 649 OFFCURVE",
"293 614 OFFCURVE",
"293 572 CURVE SMOOTH",
"293 528 OFFCURVE",
"258 493 OFFCURVE",
"215 493 CURVE SMOOTH"
);
}
);
};
layerId = "7EBE3D46-E53E-419E-A3EC-596DA2EA1E0D";
name = Regular;
paths = (
{
closed = 1;
nodes = (
"300.678 417 OFFCURVE",
"372 488.322 OFFCURVE",
"372 571 CURVE",
"372 652.678 OFFCURVE",
"300.678 724 OFFCURVE",
"214 724 CURVE",
"126.322 724 OFFCURVE",
"55 652.678 OFFCURVE",
"55 571 CURVE",
"55 488.322 OFFCURVE",
"126.322 417 OFFCURVE",
"214 417 CURVE"
);
},
{
closed = 1;
nodes = (
"180.918 503 OFFCURVE",
"152 532.694 OFFCURVE",
"152 572 CURVE",
"152 609.301 OFFCURVE",
"180.918 639 OFFCURVE",
"215 639 CURVE",
"248.215 639 OFFCURVE",
"278 609.226 OFFCURVE",
"278 572 CURVE",
"278 532.77 OFFCURVE",
"248.215 503 OFFCURVE",
"215 503 CURVE"
);
}
);
width = 427;
}
);
unicode = 00B0;
},
{
glyphname = cedilla;
lastChange = "2016-12-21 09:35:42 +0000";
layers = (
{
background = {
paths = (
{
closed = 1;
nodes = (
"232 -73 LINE",
"256 -73 OFFCURVE",
"304 -68 OFFCURVE",
"304 -110 CURVE",
"304 -169 OFFCURVE",
"229 -138 OFFCURVE",
"229 -138 CURVE SMOOTH",
"212 -213 LINE",
"305 -234 OFFCURVE",
"387 -222 OFFCURVE",
"387 -117 CURVE",
"387 -20 OFFCURVE",
"309 -32 OFFCURVE",
"309 -32 CURVE SMOOTH",
"319 15 LINE",
"245 6 LINE"
);
}
);
};
layerId = "7EBE3D46-E53E-419E-A3EC-596DA2EA1E0D";
name = Regular;
paths = (
{
closed = 1;
nodes = (
"215 -92 LINE",
"240 -87 OFFCURVE",
"289 -82 OFFCURVE",
"289 -120 CURVE",
"289 -161 OFFCURVE",
"235 -139 OFFCURVE",
"235 -139 CURVE",
"221 -134 LINE",
"195 -230 LINE",
"297 -256 OFFCURVE",
"402 -247 OFFCURVE",
"402 -127 CURVE",
"402 -49 OFFCURVE",
"354 -34 OFFCURVE",
"326 -32 CURVE",
"337 17 LINE",
"231 4 LINE"
);
}
);
width = 600;
}
);
unicode = 00B8;
},
{
glyphname = ogonek;
lastChange = "2016-12-21 09:32:16 +0000";
layers = (
{
background = {
paths = (
{
closed = 1;
nodes = (
"373 -127 LINE",
"361 -128 OFFCURVE",
"346 -128 OFFCURVE",
"337 -128 CURVE SMOOTH",
"300 -128 OFFCURVE",
"287 -113 OFFCURVE",
"287 -90 CURVE SMOOTH",
"287 -60 OFFCURVE",
"303 -36 OFFCURVE",
"335 -25 CURVE",
"335 0 LINE",
"244 0 LINE",
"182 -40 OFFCURVE",
"181 -82 OFFCURVE",
"181 -115 CURVE SMOOTH",
"181 -166 OFFCURVE",
"230 -220 OFFCURVE",
"305 -220 CURVE SMOOTH",
"322 -220 OFFCURVE",
"346 -219 OFFCURVE",
"363 -216 CURVE"
);
}
);
};
layerId = "7EBE3D46-E53E-419E-A3EC-596DA2EA1E0D";
name = Regular;
paths = (
{
closed = 1;
nodes = (
"389 -117 LINE",
"377 -118 OFFCURVE",
"346 -118 OFFCURVE",
"337 -118 CURVE",
"310.475 -118 OFFCURVE",
"302 -108.504 OFFCURVE",
"302 -90 CURVE",
"302 -60.3349 OFFCURVE",
"320.578 -36.7849 OFFCURVE",
"350 -31.9131 CURVE",
"350 10 LINE",
"238.374 10 LINE",
"167.121 -34.8615 OFFCURVE",
"166 -81.5436 OFFCURVE",
"166 -115 CURVE",
"166 -168.431 OFFCURVE",
"221.868 -230 OFFCURVE",
"305 -230 CURVE",
"326.943 -230 OFFCURVE",
"362.095 -228.298 OFFCURVE",
"377.242 -223.024 CURVE"
);
}
);
width = 600;
}
);
unicode = 02DB;
},
{
glyphname = ring;
lastChange = "2016-12-21 09:22:52 +0000";
layers = (
{
background = {
paths = (
{
closed = 1;
nodes = (
"376.812 530 OFFCURVE",
"433 586.188 OFFCURVE",
"433 655.5 CURVE SMOOTH",
"433 724.812 OFFCURVE",
"376.812 781 OFFCURVE",
"307.5 781 CURVE SMOOTH",
"238.188 781 OFFCURVE",
"182 724.812 OFFCURVE",
"182 655.5 CURVE SMOOTH",
"182 586.188 OFFCURVE",
"238.188 530 OFFCURVE",
"307.5 530 CURVE SMOOTH"
);
},
{
closed = 1;
nodes = (
"278 598 OFFCURVE",
"253 623 OFFCURVE",
"253 653 CURVE SMOOTH",
"253 684 OFFCURVE",
"278 708 OFFCURVE",
"308 708 CURVE SMOOTH",
"338 708 OFFCURVE",
"363 684 OFFCURVE",
"363 653 CURVE SMOOTH",
"363 623 OFFCURVE",
"338 598 OFFCURVE",
"308 598 CURVE SMOOTH"
);
}
);
};
layerId = "7EBE3D46-E53E-419E-A3EC-596DA2EA1E0D";
name = Regular;
paths = (
{
closed = 1;
nodes = (
"384.49 520 OFFCURVE",
"448 583.51 OFFCURVE",
"448 655.5 CURVE",
"448 727.49 OFFCURVE",
"384.49 791 OFFCURVE",
"307.5 791 CURVE",
"230.51 791 OFFCURVE",
"167 727.49 OFFCURVE",
"167 655.5 CURVE",
"167 583.51 OFFCURVE",
"230.51 520 OFFCURVE",
"307.5 520 CURVE"
);
},
{
closed = 1;
nodes = (
"287.841 608 OFFCURVE",
"268 627.813 OFFCURVE",
"268 653 CURVE",
"268 679.082 OFFCURVE",
"287.648 698 OFFCURVE",
"308 698 CURVE",
"328.352 698 OFFCURVE",
"348 679.082 OFFCURVE",
"348 653 CURVE",
"348 627.813 OFFCURVE",
"328.159 608 OFFCURVE",
"308 608 CURVE"
);
}
);
width = 600;
}
);
unicode = 02DA;
},
{
glyphname = _one.001;
lastChange = "2016-12-21 09:22:52 +0000";
layers = (
{
background = {
paths = (
{
closed = 1;
nodes = (
"48 579 LINE",
"250 622 LINE",
"250 700 LINE",
"210 700 LINE",
"48 660 LINE"
);
}
);
};
components = (
{
name = _I_small;
transform = "{1, 0, 0, 1, 117, 3}";
},
{
name = _I_small;
transform = "{1, 0, 0, 1, 117, 168}";
},
{
name = _I_small;
transform = "{1, 0, 0, 1, 117, 331}";
},
{
name = _I_small;
transform = "{1, 0, 0, 1, 117, 477}";
},
{
name = "_dash-small";
transform = "{1, 0, 0, 1, -1, -219}";
},
{
name = "_dash-small";
transform = "{1, 0, 0, 1, -84, -219}";
}
);
layerId = "7EBE3D46-E53E-419E-A3EC-596DA2EA1E0D";
name = Regular;
paths = (
{
closed = 1;
nodes = (
"33 565.361 LINE",
"265 614.747 LINE",
"265 710 LINE",
"207.585 710 LINE",
"33 666.893 LINE"
);
}
);
width = 600;
}
);
},
{
glyphname = newGlyph;
lastChange = "2016-12-21 09:22:52 +0000";
layers = (
{
background = {
paths = (
{
closed = 1;
nodes = (
"451.244 183 OFFCURVE",
"494 243.217 OFFCURVE",
"494 317.5 CURVE SMOOTH",
"494 391.783 OFFCURVE",
"451.244 452 OFFCURVE",
"398.5 452 CURVE SMOOTH",
"345.756 452 OFFCURVE",
"303 391.783 OFFCURVE",
"303 317.5 CURVE SMOOTH",
"303 243.217 OFFCURVE",
"345.756 183 OFFCURVE",
"398.5 183 CURVE SMOOTH"
);
}
);
};
layerId = "7EBE3D46-E53E-419E-A3EC-596DA2EA1E0D";
name = Regular;
paths = (
{
closed = 1;
nodes = (
"460.485 173 OFFCURVE",
"509 241.328 OFFCURVE",
"509 317.5 CURVE",
"509 393.672 OFFCURVE",
"460.485 462 OFFCURVE",
"398.5 462 CURVE",
"336.515 462 OFFCURVE",
"288 393.672 OFFCURVE",
"288 317.5 CURVE",
"288 241.328 OFFCURVE",
"336.515 173 OFFCURVE",
"398.5 173 CURVE"
);
}
);
width = 600;
}
);
},
{
glyphname = _slash;
lastChange = "2016-12-21 09:40:32 +0000";
layers = (
{
background = {
paths = (
{
closed = 1;
nodes = (
"302 700 LINE SMOOTH",
"73 24 LINE",
"73 1 LINE",
"163 1 LINE",
"315 477 LINE SMOOTH",
"334 477 LINE",
"334 700 LINE"
);
}
);
};
layerId = "7EBE3D46-E53E-419E-A3EC-596DA2EA1E0D";
name = Regular;
paths = (
{
closed = 1;
nodes = (
"305 710 LINE",
"58 15 LINE",
"58 -9 LINE",
"175.067 -9 LINE",
"313 451 LINE",
"332 451 LINE",
"332 710 LINE"
);
}
);
width = 600;
}
);
},
{
glyphname = _curve_B;
lastChange = "2016-12-21 09:22:52 +0000";
layers = (
{
background = {
paths = (
{
closed = 1;
nodes = (
"71 344 LINE",
"82 344 OFFCURVE",
"327 344 OFFCURVE",
"327 344 CURVE SMOOTH",
"387 376 OFFCURVE",
"432 423 OFFCURVE",
"432 508 CURVE SMOOTH",
"432 620 OFFCURVE",
"361 702 OFFCURVE",
"223 701 CURVE SMOOTH",
"74 700 LINE",
"89 619 LINE",
"204 619 LINE SMOOTH",
"292 619 OFFCURVE",
"328 580 OFFCURVE",
"328 507 CURVE SMOOTH",
"328 433 OFFCURVE",
"306 383 OFFCURVE",
"221 383 CURVE SMOOTH",
"82 383 LINE"
);
}
);
};
layerId = "7EBE3D46-E53E-419E-A3EC-596DA2EA1E0D";
name = Regular;
paths = (
{
closed = 1;
nodes = (
"56.5633 346.715 LINE",
"71 334 LINE",
"82 334 OFFCURVE",
"327 334 OFFCURVE",
"326.98 332.745 CURVE",
"394.385 365.599 OFFCURVE",
"447 417.224 OFFCURVE",
"447 508 CURVE",
"447 622.319 OFFCURVE",
"369.297 712.061 OFFCURVE",
"222.891 711 CURVE",
"57.0827 709.887 LINE",
"75.7654 609 LINE",
"204 609 LINE",
"281.899 609 OFFCURVE",
"313 575.472 OFFCURVE",
"313 507 CURVE",
"313 436.194 OFFCURVE",
"292.846 393 OFFCURVE",
"221 393 CURVE",
"69.6181 393 LINE"
);
}
);
width = 469;
}
);
},
{
glyphname = _I_dbh;
lastChange = "2016-12-21 09:22:52 +0000";
layers = (
{
background = {
paths = (
{
closed = 1;
nodes = (
"40 264 LINE",
"133 264 LINE",
"133 431 LINE",
"40 431 LINE"
);
}
);
};
components = (
{
name = _I_small;
transform = "{1, 0, 0, 1, 0, 582}";
},
{
name = _I_small;
transform = "{1, 0, 0, 1, 0, 98}";
},
{
name = _I_small;
transform = "{1, 0, 0, 1, 0, 426}";
},
{
name = _I_small;
transform = "{1, 0, 0, 1, 0, 572}";
},
{
name = _I_small;
transform = "{1, 0, 0, 1, 0, 533}";
},
{
name = _I_small;
transform = "{1, 0, 0, 1, 0, 0}";
},
{
name = _I_small;
transform = "{1, 0, 0, 1, 0, 165}";
},
{
name = _I_small;
transform = "{1, 0, 0, 1, 0, 328}";
},
{
name = _I_small;
transform = "{1, 0, 0, 1, 0, 474}";
}
);
layerId = "7EBE3D46-E53E-419E-A3EC-596DA2EA1E0D";
name = Regular;
paths = (
{
closed = 1;
nodes = (
"25 254 LINE",
"148 254 LINE",
"148 441 LINE",
"25 441 LINE"
);
}
);
width = 509;
}
);
},
{
glyphname = _curve_b;
lastChange = "2016-12-21 12:45:08 +0000";
layers = (
{
background = {
paths = (
{
closed = 1;
nodes = (
"252 419 LINE",
"322 419 OFFCURVE",
"367 369 OFFCURVE",
"367 282 CURVE",
"367 222 LINE SMOOTH",
"367 141 OFFCURVE",
"319 82 OFFCURVE",
"256 81 CURVE SMOOTH",
"184 80 OFFCURVE",
"165 97 OFFCURVE",
"128 115 CURVE",
"125 48 LINE",
"154 18 OFFCURVE",
"189 -11 OFFCURVE",
"255 -11 CURVE SMOOTH",
"392 -11 OFFCURVE",
"459 98 OFFCURVE",
"459 222 CURVE SMOOTH",
"459 282 LINE",
"457 412 OFFCURVE",
"395 511 OFFCURVE",
"252 511 CURVE"
);
}
);
};
components = (
{
name = _d_curl;
transform = "{1, 0, 0, 1, 1, 0}";
}
);
guideLines = (
{
position = "{460, 512}";
}
);
layerId = "7EBE3D46-E53E-419E-A3EC-596DA2EA1E0D";
name = Regular;
paths = (
{
closed = 1;
nodes = (
"262 408 LINE",
"311 408 OFFCURVE",
"352 371.274 OFFCURVE",
"352 282 CURVE",
"352 222 LINE",
"352 145.225 OFFCURVE",
"318 92 OFFCURVE",
"266 91 CURVE",
"191 90 OFFCURVE",
"171.668 108.813 OFFCURVE",
"113.822 133.469 CURVE",
"110 103 LINE",
"138 43 OFFCURVE",
"188 -21 OFFCURVE",
"265 -21 CURVE",
"412 -21 OFFCURVE",
"474 96.3768 OFFCURVE",
"474 222 CURVE",
"474 282 LINE",
"471.909 417.925 OFFCURVE",
"423 520 OFFCURVE",
"262 520 CURVE"
);
}
);
width = 493;
}
);
},
{
glyphname = _C_curve;
lastChange = "2016-12-21 09:22:52 +0000";
layers = (
{
background = {
paths = (
{
closed = 1;
nodes = (
"277 665 LINE",
"274 665 OFFCURVE",
"271 665 OFFCURVE",
"268 665 CURVE SMOOTH",
"141 665 OFFCURVE",
"31 588 OFFCURVE",
"31 371 CURVE SMOOTH",
"31 282 LINE SMOOTH",
"31 153 OFFCURVE",
"125 201 OFFCURVE",
"125 282 CURVE SMOOTH",
"125 362 LINE SMOOTH",
"125 511 OFFCURVE",
"186 573 OFFCURVE",
"266 573 CURVE SMOOTH",
"269 573 OFFCURVE",
"272 573 OFFCURVE",
"275 573 CURVE"
);
}
);
};
components = (
{
name = _c;
transform = "{1, 0, 0, 1, -3, 0}";
}
);
layerId = "7EBE3D46-E53E-419E-A3EC-596DA2EA1E0D";
name = Regular;
paths = (
{
closed = 1;
nodes = (
"289.996 572.783 LINE",
"291.996 664.783 LINE",
"277 675 LINE",
"274 675 OFFCURVE",
"271 675 OFFCURVE",
"268 675 CURVE",
"134.98 675 OFFCURVE",
"16 591.714 OFFCURVE",
"16 371 CURVE",
"16 282 LINE",
"16 130.951 OFFCURVE",
"140 194.27 OFFCURVE",
"140 282 CURVE",
"140 362 LINE",
"140 506.338 OFFCURVE",
"195.808 563 OFFCURVE",
"266 563 CURVE",
"269 563 OFFCURVE",
"272 563 OFFCURVE",
"275 563 CURVE"
);
}
);
width = 506;
}
);
},
{
glyphname = _I_small;
lastChange = "2016-12-21 09:22:52 +0000";
layers = (
{
background = {
paths = (
{
closed = 1;
nodes = (
"40 1 LINE",
"133 1 LINE",
"133 168 LINE",
"40 168 LINE"
);
}
);
};
layerId = "7EBE3D46-E53E-419E-A3EC-596DA2EA1E0D";
name = Regular;
paths = (
{
closed = 1;
nodes = (
"25 -9 LINE",
"148 -9 LINE",
"148 178 LINE",
"25 178 LINE"
);
}
);
width = 469;
}
);
},
{
glyphname = _curve_generic;
lastChange = "2016-12-21 09:22:52 +0000";
layers = (
{
background = {
paths = (
{
closed = 1;
nodes = (
"357 431 OFFCURVE",
"450 413 OFFCURVE",
"450 499 CURVE SMOOTH",
"450 611 OFFCURVE",
"390 703 OFFCURVE",
"252 702 CURVE SMOOTH",
"103 701 LINE",
"118 620 LINE",
"233 620 LINE SMOOTH",
"321 620 OFFCURVE",
"357 571 OFFCURVE",
"357 498 CURVE SMOOTH"
);
}
);
};
layerId = "7EBE3D46-E53E-419E-A3EC-596DA2EA1E0D";
name = Regular;
paths = (
{
closed = 1;
nodes = (
"342 421.534 OFFCURVE",
"465 397.727 OFFCURVE",
"465 499 CURVE",
"465 612.728 OFFCURVE",
"399.56 713.07 OFFCURVE",
"251.891 712 CURVE",
"86.0827 710.887 LINE",
"104.765 610 LINE",
"233 610 LINE",
"309.859 610 OFFCURVE",
"342 566.988 OFFCURVE",
"342 498 CURVE"
);
}
);
width = 600;
}
);
},
{
glyphname = _EF_horizontal;
lastChange = "2016-12-21 09:22:52 +0000";
layers = (
{
background = {
paths = (
{
closed = 1;
nodes = (
"134 312 LINE",
"336 312 LINE",
"336 393 LINE",
"134 393 LINE"
);
}
);
};
layerId = "7EBE3D46-E53E-419E-A3EC-596DA2EA1E0D";
name = Regular;
paths = (
{
closed = 1;
nodes = (
"119 302 LINE",
"351 302 LINE",
"351 403 LINE",
"119 403 LINE"
);
}
);
width = 600;
}
);
},
{
glyphname = "_dash-small";
lastChange = "2016-12-21 09:22:52 +0000";
layers = (
{
background = {
paths = (
{
closed = 1;
nodes = (
"170 222 LINE",
"332 222 LINE",
"332 300 LINE",
"170 300 LINE"
);
}
);
};
layerId = "7EBE3D46-E53E-419E-A3EC-596DA2EA1E0D";
name = Regular;
paths = (
{
closed = 1;
nodes = (
"155 212 LINE",
"347 212 LINE",
"347 310 LINE",
"155 310 LINE"
);
}
);
width = 600;
}
);
},
{
glyphname = _dot;
lastChange = "2016-12-21 09:22:52 +0000";
layers = (
{
background = {
paths = (
{
closed = 1;
nodes = (
"173 599 OFFCURVE",
"207 630 OFFCURVE",
"207 669 CURVE SMOOTH",
"207 709 OFFCURVE",
"173 741 OFFCURVE",
"131 741 CURVE SMOOTH",
"89 741 OFFCURVE",
"54 709 OFFCURVE",
"54 669 CURVE SMOOTH",
"54 630 OFFCURVE",
"89 599 OFFCURVE",
"131 599 CURVE SMOOTH"
);
}
);
};
layerId = "7EBE3D46-E53E-419E-A3EC-596DA2EA1E0D";
name = Regular;
paths = (
{
closed = 1;
nodes = (
"180.243 589 OFFCURVE",
"222 627.072 OFFCURVE",
"222 669 CURVE",
"222 711.84 OFFCURVE",
"180.393 751 OFFCURVE",
"131 751 CURVE",
"81.7438 751 OFFCURVE",
"39 711.92 OFFCURVE",
"39 669 CURVE",
"39 626.991 OFFCURVE",
"81.893 589 OFFCURVE",
"131 589 CURVE"
);
}
);
width = 260;
}
);
},
{
glyphname = _hmn;
lastChange = "2016-12-21 12:45:19 +0000";
layers = (
{
background = {
paths = (
{
closed = 1;
nodes = (
"454 1 LINE",
"454 303 LINE",
"452 449 OFFCURVE",
"383 511 OFFCURVE",
"261 511 CURVE",
"261 419 LINE",
"315 419 OFFCURVE",
"361 399 OFFCURVE",
"361 283 CURVE SMOOTH",
"361 1 LINE"
);
}
);
};
components = (
{
name = _d_curl;
transform = "{1, 0, 0, 1, 10, 0}";
}
);
layerId = "7EBE3D46-E53E-419E-A3EC-596DA2EA1E0D";
name = Regular;
paths = (
{
closed = 1;
nodes = (
"469 -9 LINE",
"469 303 LINE",
"466.882 457.68 OFFCURVE",
"399 520 OFFCURVE",
"271 520 CURVE",
"271 408 LINE",
"296 407 OFFCURVE",
"346 402.842 OFFCURVE",
"346 283 CURVE",
"346 -9 LINE"
);
}
);
width = 600;
}
);
},
{
glyphname = _w_slash;
lastChange = "2016-12-21 12:51:41 +0000";
layers = (
{
background = {
paths = (
{
closed = 1;
nodes = (
"288 237 LINE SMOOTH",
"246 237 LINE",
"129 699 LINE",
"39 699 LINE",
"39 676 LINE",
"232 0 LINE SMOOTH",
"254 0 LINE"
);
}
);
};
layerId = "7EBE3D46-E53E-419E-A3EC-596DA2EA1E0D";
name = Regular;
paths = (
{
closed = 1;
nodes = (
"294 267 LINE",
"249 267 LINE",
"141.63 709 LINE",
"24 709 LINE",
"24 685 LINE",
"219.648 -10 LINE",
"267.617 -10 LINE"
);
}
);
width = 600;
}
);
},
{
glyphname = _w_slash_2;
lastChange = "2016-12-21 12:51:48 +0000";
layers = (
{
background = {
paths = (
{
closed = 1;
nodes = (
"258 1 LINE SMOOTH",
"373 434 LINE",
"410 433 LINE",
"390 700 LINE SMOOTH",
"357 700 LINE",
"216 185 LINE SMOOTH",
"226 1 LINE"
);
}
);
};
layerId = "7EBE3D46-E53E-419E-A3EC-596DA2EA1E0D";
name = Regular;
paths = (
{
closed = 1;
nodes = (
"270.523 -9 LINE",
"372 424 LINE",
"413 423 LINE",
"404.265 710 LINE",
"344.547 710 LINE",
"211 186 LINE",
"211.536 -9 LINE"
);
}
);
width = 600;
}
);
},
{
glyphname = _X;
lastChange = "2016-12-21 09:22:52 +0000";
layers = (
{
background = {
paths = (
{
closed = 1;
nodes = (
"315 289 LINE SMOOTH",
"565 675 LINE",
"565 698 LINE",
"467 698 LINE",
"283 401 LINE SMOOTH",
"283 289 LINE"
);
}
);
};
layerId = "7EBE3D46-E53E-419E-A3EC-596DA2EA1E0D";
name = Regular;
paths = (
{
closed = 1;
nodes = (
"324.634 279 LINE",
"580 673.285 LINE",
"580 708 LINE",
"457.181 708 LINE",
"268 402.637 LINE",
"268 279 LINE"
);
}
);
width = 600;
}
);
},
{
glyphname = _curve_lower;
lastChange = "2016-12-21 10:23:01 +0000";
layers = (
{
background = {
paths = (
{
closed = 1;
nodes = (
"103 348 LINE",
"103 209 LINE SMOOTH",
"103 93 OFFCURVE",
"157 13 OFFCURVE",
"276 11 CURVE SMOOTH",
"341 10 OFFCURVE",
"366 28 OFFCURVE",
"405 46 CURVE",
"387 138 LINE",
"344 116 OFFCURVE",
"320 106 OFFCURVE",
"277 106 CURVE SMOOTH",
"226 106 OFFCURVE",
"196 150 OFFCURVE",
"196 231 CURVE SMOOTH",
"196 348 LINE"
);
}
);
};
layerId = "7EBE3D46-E53E-419E-A3EC-596DA2EA1E0D";
name = Regular;
paths = (
{
closed = 1;
nodes = (
"88 358 LINE",
"88 209 LINE",
"88 91.2086 OFFCURVE",
"147 0 OFFCURVE",
"275.748 1.00141 CURVE",
"353 0 OFFCURVE",
"380.172 24.1904 OFFCURVE",
"421.033 41.2116 CURVE",
"398.507 156.345 LINE",
"340.755 126.551 OFFCURVE",
"321.098 116 OFFCURVE",
"277 116 CURVE",
"238 116 OFFCURVE",
"211 154 OFFCURVE",
"211 211 CURVE",
"211 358 LINE"
);
}
);
width = 476;
}
);
},
{
glyphname = _curve_lower_big;
lastChange = "2016-12-21 10:25:08 +0000";
layers = (
{
background = {
paths = (
{
closed = 1;
nodes = (
"-322 80 LINE",
"-402 80 OFFCURVE",
"-449 142 OFFCURVE",
"-449 221 CURVE SMOOTH",
"-449 241 LINE SMOOTH",
"-449 322 OFFCURVE",
"-543 380 OFFCURVE",
"-543 251 CURVE SMOOTH",
"-543 212 LINE SMOOTH",
"-543 85 OFFCURVE",
"-447 -12 OFFCURVE",
"-320 -12 CURVE"
);
}
);
};
components = (
{
name = _c;
transform = "{1, 0, 0, -1, -599, 653}";
}
);
layerId = "7EBE3D46-E53E-419E-A3EC-596DA2EA1E0D";
name = Regular;
paths = (
{
closed = 1;
nodes = (
"-307 90 LINE",
"-388 82 OFFCURVE",
"-434 140.862 OFFCURVE",
"-434 221 CURVE",
"-434 241 LINE",
"-434 328.115 OFFCURVE",
"-558 404.626 OFFCURVE",
"-558 251 CURVE",
"-558 212 LINE",
"-558 77.5117 OFFCURVE",
"-437 -33 OFFCURVE",
"-304.791 -21.56 CURVE"
);
}
);
width = 526;
}
);
},
{
glyphname = _o_curve;
lastChange = "2016-12-21 09:22:52 +0000";
layers = (
{
background = {
paths = (
{
closed = 1;
nodes = (
"257 511 LINE",
"254 511 OFFCURVE",
"251 511 OFFCURVE",
"248 511 CURVE SMOOTH",
"108 511 OFFCURVE",
"46 408 OFFCURVE",
"44 282 CURVE SMOOTH",
"44 281 OFFCURVE",
"44 268 OFFCURVE",
"44 251 CURVE",
"137 251 LINE",
"137 265 OFFCURVE",
"137 282 OFFCURVE",
"137 283 CURVE SMOOTH",
"137 360 OFFCURVE",
"169 421 OFFCURVE",
"249 421 CURVE SMOOTH",
"251 421 OFFCURVE",
"253 421 OFFCURVE",
"255 421 CURVE"
);
}
);
};
layerId = "7EBE3D46-E53E-419E-A3EC-596DA2EA1E0D";
name = Regular;
paths = (
{
closed = 1;
nodes = (
"269.996 420.778 LINE",
"271.996 510.778 LINE",
"257 521 LINE",
"254 521 OFFCURVE",
"251 521 OFFCURVE",
"248 521 CURVE",
"98.0637 521 OFFCURVE",
"31.0252 409.63 OFFCURVE",
"29.0019 282.159 CURVE",
"29 280.811 OFFCURVE",
"29 262.665 OFFCURVE",
"29 241 CURVE",
"152 241 LINE",
"152 255.05 OFFCURVE",
"152 281.739 OFFCURVE",
"152 283 CURVE",
"152 356.576 OFFCURVE",
"181.53 411 OFFCURVE",
"249 411 CURVE",
"251 411 OFFCURVE",
"253 411 OFFCURVE",
"255 411 CURVE"
);
}
);
width = 900;
}
);
},
{
glyphname = _M;
lastChange = "2016-12-21 09:46:46 +0000";
layers = (
{
background = {
paths = (
{
closed = 1;
nodes = (
"324 242 LINE SMOOTH",
"489 466 LINE",
"593 467 LINE",
"593 708 LINE",
"559 708 LINE",
"292 344 LINE SMOOTH",
"292 242 LINE"
);
}
);
};
layerId = "7EBE3D46-E53E-419E-A3EC-596DA2EA1E0D";
name = Regular;
paths = (
{
closed = 1;
nodes = (
"316 212 LINE",
"498.144 456.087 LINE",
"608 457.143 LINE",
"608 718 LINE",
"549.902 718 LINE",
"290 356 LINE",
"290 212 LINE"
);
}
);
width = 642;
}
);
},
{
glyphname = _O;
lastChange = "2016-12-21 09:22:52 +0000";
layers = (
{
background = {
paths = (
{
closed = 1;
nodes = (
"300 706 LINE",
"284 707 LINE",
"132 707 OFFCURVE",
"50 583 OFFCURVE",
"50 421 CURVE SMOOTH",
"50 420 OFFCURVE",
"50 353 OFFCURVE",
"50 336 CURVE",
"143 348 LINE",
"143 362 OFFCURVE",
"143 412 OFFCURVE",
"143 413 CURVE SMOOTH",
"143 536 OFFCURVE",
"187 614 OFFCURVE",
"285 614 CURVE",
"293 614 LINE"
);
}
);
};
layerId = "7EBE3D46-E53E-419E-A3EC-596DA2EA1E0D";
name = Regular;
paths = (
{
closed = 1;
nodes = (
"315.704 715.058 LINE",
"284.936 716.981 LINE",
"284 717 LINE",
"122.454 717 OFFCURVE",
"35 584.753 OFFCURVE",
"35 421 CURVE",
"35 420 OFFCURVE",
"35 353 OFFCURVE",
"35 336 CURVE",
"51.9196 326.082 LINE",
"144.92 338.082 LINE",
"158 348 LINE",
"158 362 OFFCURVE",
"158 412 OFFCURVE",
"158 413 CURVE",
"158 532.485 OFFCURVE",
"199.24 604 OFFCURVE",
"285 604 CURVE",
"307.254 604 LINE"
);
}
);
width = 900;
}
);
},
{
glyphname = _x;
lastChange = "2016-12-21 09:22:52 +0000";
layers = (
{
background = {
paths = (
{
closed = 1;
nodes = (
"358 202 LINE SMOOTH",
"495 1 LINE",
"592 1 LINE",
"592 24 LINE",
"390 311 LINE SMOOTH",
"358 311 LINE"
);
}
);
};
layerId = "7EBE3D46-E53E-419E-A3EC-596DA2EA1E0D";
name = Regular;
paths = (
{
closed = 1;
nodes = (
"343 200.19 LINE",
"485.582 -9 LINE",
"607 -9 LINE",
"607 25.8717 LINE",
"399.279 321 LINE",
"343 321 LINE"
);
}
);
width = 900;
}
);
},
{
glyphname = _w_small_slash;
lastChange = "2016-12-21 12:49:38 +0000";
layers = (
{
background = {
paths = (
{
closed = 1;
nodes = (
"243 198 LINE SMOOTH",
"224 198 LINE",
"128 499 LINE",
"30 499 LINE",
"30 476 LINE",
"205 2 LINE SMOOTH",
"227 2 LINE"
);
}
);
};
layerId = "7EBE3D46-E53E-419E-A3EC-596DA2EA1E0D";
name = Regular;
paths = (
{
closed = 1;
nodes = (
"249 228 LINE",
"226 228 LINE",
"140.071 509 LINE",
"15 509 LINE",
"15 495 LINE",
"193 -8 LINE",
"241.2 -8 LINE"
);
}
);
width = 900;
}
);
},
{
glyphname = _w_small_slash_2;
lastChange = "2016-12-21 10:31:11 +0000";
layers = (
{
background = {
paths = (
{
closed = 1;
nodes = (
"407 120 LINE SMOOTH",
"282 499 LINE",
"249 499 LINE",
"249 295 LINE",
"268 295 LINE",
"367 2 LINE SMOOTH",
"399 2 LINE"
);
}
);
};
layerId = "7EBE3D46-E53E-419E-A3EC-596DA2EA1E0D";
name = Regular;
paths = (
{
closed = 1;
nodes = (
"416 121 LINE",
"293.98 509 LINE",
"234 509 LINE",
"248 275 LINE",
"270 275 LINE",
"359 -8 LINE",
"407 -8 LINE"
);
}
);
width = 900;
}
);
},
{
glyphname = _y;
lastChange = "2016-12-21 12:48:46 +0000";
layers = (
{
background = {
paths = (
{
closed = 1;
nodes = (
"324 0 LINE SMOOTH",
"533 476 LINE",
"533 500 LINE",
"438 500 LINE",
"316 187 LINE",
"273 187 LINE SMOOTH",
"302 0 LINE"
);
}
);
};
layerId = "7EBE3D46-E53E-419E-A3EC-596DA2EA1E0D";
name = Regular;
paths = (
{
closed = 1;
nodes = (
"325 -10 LINE",
"548 495 LINE",
"548 510 LINE",
"426.506 510 LINE",
"318 236 LINE",
"289 236 LINE",
"303 -10 LINE"
);
}
);
width = 900;
}
);
},
{
glyphname = _D;
lastChange = "2016-12-21 09:22:52 +0000";
layers = (
{
background = {
paths = (
{
closed = 1;
nodes = (
"409 328 LINE",
"409 265 OFFCURVE",
"502 259 OFFCURVE",
"502 335 CURVE",
"502 419 LINE",
"502 575 OFFCURVE",
"431 703 OFFCURVE",
"244 702 CURVE SMOOTH",
"115 701 LINE",
"130 620 LINE",
"245 620 LINE SMOOTH",
"370 620 OFFCURVE",
"409 537 OFFCURVE",
"409 418 CURVE"
);
}
);
};
layerId = "7EBE3D46-E53E-419E-A3EC-596DA2EA1E0D";
name = Regular;
paths = (
{
closed = 1;
nodes = (
"394 328 LINE",
"394 251.871 OFFCURVE",
"517 243.945 OFFCURVE",
"517 335 CURVE",
"517 419 LINE",
"517 576.456 OFFCURVE",
"441.23 713.055 OFFCURVE",
"243.92 712 CURVE",
"98.0859 710.869 LINE",
"116.765 610 LINE",
"245 610 LINE",
"357.09 610 OFFCURVE",
"394 533.744 OFFCURVE",
"394 418 CURVE"
);
}
);
width = 533;
}
);
},
{
glyphname = _qtail;
lastChange = "2016-12-21 09:22:52 +0000";
layers = (
{
anchors = (
{
name = _tailq;
position = "{467, 92}";
}
);
background = {
paths = (
{
closed = 1;
nodes = (
"320 205 LINE SMOOTH",
"469 1 LINE",
"547 1 LINE",
"547 24 LINE",
"352 303 LINE SMOOTH",
"320 303 LINE"
);
}
);
};
layerId = "7EBE3D46-E53E-419E-A3EC-596DA2EA1E0D";
name = Regular;
paths = (
{
closed = 1;
nodes = (
"305 203.054 LINE",
"459.883 -9 LINE",
"562 -9 LINE",
"562 25.858 LINE",
"361.309 313 LINE",
"305 313 LINE"
);
}
);
width = 616;
}
);
},
{
glyphname = _m_curve;
lastChange = "2016-12-21 09:28:46 +0000";
layers = (
{
background = {
paths = (
{
closed = 1;
nodes = (
"389 -5 LINE",
"389 260 LINE SMOOTH",
"389 415 OFFCURVE",
"354 506 OFFCURVE",
"243 506 CURVE SMOOTH",
"177 506 OFFCURVE",
"145 475 OFFCURVE",
"109 410 CURVE",
"114 284 LINE",
"126 354 OFFCURVE",
"164 422 OFFCURVE",
"217 422 CURVE SMOOTH",
"272 422 OFFCURVE",
"297 381 OFFCURVE",
"297 275 CURVE",
"297 -5 LINE"
);
}
);
};
layerId = "7EBE3D46-E53E-419E-A3EC-596DA2EA1E0D";
name = Regular;
paths = (
{
closed = 1;
nodes = (
"404 -15 LINE",
"404 260 LINE",
"404 415.99 OFFCURVE",
"365.535 516 OFFCURVE",
"243 516 CURVE",
"168.142 516 OFFCURVE",
"119 438 OFFCURVE",
"93 361 CURVE",
"98 284 LINE",
"128 282 LINE",
"133 360 OFFCURVE",
"176.321 412 OFFCURVE",
"217 412 CURVE",
"260.031 412 OFFCURVE",
"282 377.353 OFFCURVE",
"282 275 CURVE",
"282 -15 LINE"
);
}
);
width = 741;
}
);
},
{
glyphname = _R_slash;
lastChange = "2016-12-21 09:22:52 +0000";
layers = (
{
background = {
paths = (
{
closed = 1;
nodes = (
"206 375 LINE SMOOTH",
"380 2 LINE",
"468 2 LINE",
"468 18 LINE",
"302 375 LINE SMOOTH"
);
}
);
};
layerId = "7EBE3D46-E53E-419E-A3EC-596DA2EA1E0D";
name = Regular;
paths = (
{
closed = 1;
nodes = (
"185.769 385 LINE",
"369.099 -8 LINE",
"483 -8 LINE",
"483 19.2087 LINE",
"312.912 385 LINE"
);
}
);
width = 533;
}
);
},
{
glyphname = _fraction_slash;
lastChange = "2016-12-21 09:22:52 +0000";
layers = (
{
background = {
paths = (
{
closed = 1;
nodes = (
"411 700 LINE SMOOTH",
"182 14 LINE",
"182 1 LINE",
"242 1 LINE",
"463 686 LINE SMOOTH",
"463 700 LINE"
);
}
);
};
layerId = "7EBE3D46-E53E-419E-A3EC-596DA2EA1E0D";
name = Regular;
paths = (
{
closed = 1;
nodes = (
"399.053 710 LINE",
"167 14.8543 LINE",
"167 -9 LINE",
"254.04 -9 LINE",
"478 685.175 LINE",
"478 710 LINE"
);
}
);
width = 710;
}
);
},
{
glyphname = _backslash;
lastChange = "2016-12-21 09:22:52 +0000";
layers = (
{
background = {
paths = (
{
closed = 1;
nodes = (
"70 676 LINE SMOOTH",
"291 1 LINE",
"375 1 LINE",
"375 24 LINE",
"156 700 LINE SMOOTH",
"70 700 LINE"
);
}
);
};
layerId = "7EBE3D46-E53E-419E-A3EC-596DA2EA1E0D";
name = Regular;
paths = (
{
closed = 1;
nodes = (
"55 675.163 LINE",
"279 -9 LINE",
"390 -9 LINE",
"390 24.8281 LINE",
"168.029 710 LINE",
"55 710 LINE"
);
}
);
width = 600;
}
);
},
{
glyphname = _exclamation;
lastChange = "2016-12-21 09:22:52 +0000";
layers = (
{
background = {
paths = (
{
closed = 1;
nodes = (
"84 238 LINE",
"177 238 LINE",
"197 699 LINE",
"64 699 LINE"
);
}
);
};
layerId = "7EBE3D46-E53E-419E-A3EC-596DA2EA1E0D";
name = Regular;
paths = (
{
closed = 1;
nodes = (
"69.4291 228 LINE",
"191.571 228 LINE",
"212.439 709 LINE",
"48.5615 709 LINE"
);
}
);
width = 600;
}
);
},
{
glyphname = _two_question;
lastChange = "2016-12-21 09:22:52 +0000";
layers = (
{
background = {
paths = (
{
closed = 1;
nodes = (
"230 251 LINE",
"230 251 OFFCURVE",
"264 222 OFFCURVE",
"299 196 CURVE",
"436 384 OFFCURVE",
"474 449 OFFCURVE",
"474 538 CURVE SMOOTH",
"474 644 OFFCURVE",
"405 716 OFFCURVE",
"260 716 CURVE SMOOTH",
"214 716 OFFCURVE",
"148 707 OFFCURVE",
"96 671 CURVE",
"114 581 LINE",
"155 602 OFFCURVE",
"203 622 OFFCURVE",
"259 622 CURVE SMOOTH",
"349 622 OFFCURVE",
"372 578 OFFCURVE",
"372 530 CURVE SMOOTH",
"372 465 OFFCURVE",
"349 423 OFFCURVE",
"251 282 CURVE"
);
}
);
};
layerId = "7EBE3D46-E53E-419E-A3EC-596DA2EA1E0D";
name = Regular;
paths = (
{
closed = 1;
nodes = (
"217.581 256.608 LINE",
"220.279 243.384 LINE",
"220.279 243.38 OFFCURVE",
"260.452 209.115 OFFCURVE",
"302.774 178.67 CURVE",
"448.247 377.787 OFFCURVE",
"489 445.669 OFFCURVE",
"489 538 CURVE",
"489 646.568 OFFCURVE",
"412.877 726 OFFCURVE",
"260 726 CURVE",
"210.495 726 OFFCURVE",
"134.329 715.307 OFFCURVE",
"80.297 674.01 CURVE",
"102.59 562.545 LINE",
"150.506 588.038 OFFCURVE",
"199.382 612 OFFCURVE",
"259 612 CURVE",
"338.462 612 OFFCURVE",
"357 576.547 OFFCURVE",
"357 530 CURVE",
"357 466.437 OFFCURVE",
"335.06 426.372 OFFCURVE",
"238.683 287.707 CURVE"
);
}
);
width = 565;
}
);
},
{
glyphname = _quote;
lastChange = "2016-12-21 09:22:52 +0000";
layers = (
{
background = {
paths = (
{
closed = 1;
nodes = (
"148 -3 OFFCURVE",
"124 -61 OFFCURVE",
"96 -117 CURVE",
"143 -127 LINE SMOOTH",
"144 -127 OFFCURVE",
"220 -35 OFFCURVE",
"220 70 CURVE",
"123 3 LINE"
);
}
);
};
layerId = "7EBE3D46-E53E-419E-A3EC-596DA2EA1E0D";
name = Regular;
paths = (
{
closed = 1;
nodes = (
"119.499 -6.72387 LINE",
"125.375 -8.13394 OFFCURVE",
"104.094 -72.5236 OFFCURVE",
"76.9749 -123.397 CURVE",
"139.878 -136.781 LINE",
"143 -137 LINE",
"157.965 -137 OFFCURVE",
"246.277 -27.3224 OFFCURVE",
"233.796 93.6455 CURVE",
"114.475 11.228 LINE"
);
}
);
width = 600;
}
);
},
{
glyphname = _bracket;
lastChange = "2016-12-21 09:22:52 +0000";
layers = (
{
background = {
paths = (
{
closed = 1;
nodes = (
"472 -139 LINE",
"349 -18 OFFCURVE",
"286 121 OFFCURVE",
"286 270 CURVE SMOOTH",
"286 419 OFFCURVE",
"348 556 OFFCURVE",
"472 679 CURVE",
"403 729 LINE",
"240 574 OFFCURVE",
"180 419 OFFCURVE",
"180 264 CURVE SMOOTH",
"180 98 OFFCURVE",
"254 -53 OFFCURVE",
"402 -190 CURVE"
);
}
);
};
layerId = "7EBE3D46-E53E-419E-A3EC-596DA2EA1E0D";
name = Regular;
paths = (
{
closed = 1;
nodes = (
"490.753 -139.855 LINE",
"365.567 -20.2048 OFFCURVE",
"301 118.826 OFFCURVE",
"301 270 CURVE",
"301 421.122 OFFCURVE",
"364.488 558.041 OFFCURVE",
"490.737 679.898 CURVE",
"401.503 744.56 LINE",
"228.269 583.394 OFFCURVE",
"165 422.726 OFFCURVE",
"165 264 CURVE",
"165 93.481 OFFCURVE",
"243.395 -63.182 OFFCURVE",
"400.695 -205.468 CURVE"
);
}
);
width = 600;
}
);
},
{
glyphname = _square_bracket;
lastChange = "2016-12-21 09:22:52 +0000";
layers = (
{
background = {
paths = (
{
closed = 1;
nodes = (
"290 701 LINE",
"103 701 LINE",
"103 -201 LINE",
"290 -201 LINE",
"290 -117 LINE",
"200 -117 LINE",
"200 616 LINE",
"290 616 LINE"
);
}
);
};
layerId = "7EBE3D46-E53E-419E-A3EC-596DA2EA1E0D";
name = Regular;
paths = (
{
closed = 1;
nodes = (
"305 711 LINE",
"88 711 LINE",
"88 -211 LINE",
"305 -211 LINE",
"305 -107 LINE",
"215 -107 LINE",
"215 606 LINE",
"305 606 LINE"
);
}
);
width = 600;
}
);
},
{
glyphname = _percent;
lastChange = "2016-12-21 09:22:52 +0000";
layers = (
{
background = {
paths = (
{
closed = 1;
nodes = (
"75 535 OFFCURVE",
"11 497 OFFCURVE",
"11 387 CURVE SMOOTH",
"11 273 OFFCURVE",
"75 240 OFFCURVE",
"143 240 CURVE SMOOTH",
"210 240 OFFCURVE",
"276 274 OFFCURVE",
"276 387 CURVE SMOOTH",
"276 497 OFFCURVE",
"210 535 OFFCURVE",
"143 535 CURVE SMOOTH"
);
},
{
closed = 1;
nodes = (
"175 465 OFFCURVE",
"190 454 OFFCURVE",
"190 387 CURVE SMOOTH",
"190 318 OFFCURVE",
"175 310 OFFCURVE",
"143 310 CURVE SMOOTH",
"111 310 OFFCURVE",
"96 322 OFFCURVE",
"96 387 CURVE SMOOTH",
"96 453 OFFCURVE",
"113 465 OFFCURVE",
"143 465 CURVE SMOOTH"
);
}
);
};
layerId = "7EBE3D46-E53E-419E-A3EC-596DA2EA1E0D";
name = Regular;
paths = (
{
closed = 1;
nodes = (
"69.7023 545 OFFCURVE",
"-4 501.239 OFFCURVE",
"-4 387 CURVE",
"-4 268.302 OFFCURVE",
"70.2822 230 OFFCURVE",
"143 230 CURVE",
"214.714 230 OFFCURVE",
"291 269.299 OFFCURVE",
"291 387 CURVE",
"291 501.339 OFFCURVE",
"215.168 545 OFFCURVE",
"143 545 CURVE"
);
},
{
closed = 1;
nodes = (
"164.793 455 OFFCURVE",
"175 446.435 OFFCURVE",
"175 387 CURVE",
"175 326.584 OFFCURVE",
"166.168 320 OFFCURVE",
"143 320 CURVE",
"119.777 320 OFFCURVE",
"111 327.368 OFFCURVE",
"111 387 CURVE",
"111 445.317 OFFCURVE",
"123.031 455 OFFCURVE",
"143 455 CURVE"
);
}
);
width = 600;
}
);
},
{
glyphname = _multiply;
lastChange = "2016-12-21 09:22:52 +0000";
layers = (
{
background = {
paths = (
{
closed = 1;
nodes = (
"413 280 LINE SMOOTH",
"198 509 LINE",
"136 456 LINE",
"354 221 LINE SMOOTH"
);
}
);
};
layerId = "7EBE3D46-E53E-419E-A3EC-596DA2EA1E0D";
name = Regular;
paths = (
{
closed = 1;
nodes = (
"430.515 279.837 LINE",
"199.333 526.073 LINE",
"118.105 456.635 LINE",
"353.529 202.852 LINE"
);
}
);
width = 561;
}
);
},
{
glyphname = _less_equal;
lastChange = "2016-12-21 09:22:52 +0000";
layers = (
{
background = {
paths = (
{
closed = 1;
nodes = (
"490 414 LINE SMOOTH",
"105 606 LINE",
"82 606 LINE",
"82 518 LINE",
"382 381 LINE SMOOTH",
"490 382 LINE"
);
}
);
};
layerId = "7EBE3D46-E53E-419E-A3EC-596DA2EA1E0D";
name = Regular;
paths = (
{
closed = 1;
nodes = (
"505 418.807 LINE",
"109.587 616 LINE",
"67 616 LINE",
"67 512.908 LINE",
"377.834 370.961 LINE",
"505 372.138 LINE"
);
}
);
width = 600;
}
);
},
{
glyphname = _f_integral;
lastChange = "2016-12-22 06:05:11 +0000";
layers = (
{
background = {
paths = (
{
closed = 1;
nodes = (
"311 729 OFFCURVE",
"281 733 OFFCURVE",
"253 733 CURVE SMOOTH",
"166 733 OFFCURVE",
"127 671 OFFCURVE",
"127 595 CURVE SMOOTH",
"127 366 LINE",
"220 366 LINE",
"220 563 LINE SMOOTH",
"220 590 OFFCURVE",
"223 643 OFFCURVE",
"266 643 CURVE SMOOTH",
"287 643 OFFCURVE",
"300 640 OFFCURVE",
"317 632 CURVE",
"333 723 LINE"
);
}
);
};
layerId = "7EBE3D46-E53E-419E-A3EC-596DA2EA1E0D";
name = Regular;
paths = (
{
closed = 1;
nodes = (
"328.501 736.677 OFFCURVE",
"288.367 743 OFFCURVE",
"253 743 CURVE",
"156.244 743 OFFCURVE",
"112 672.663 OFFCURVE",
"112 595 CURVE",
"112 356 LINE",
"235 356 LINE",
"235 563 LINE",
"235 589.709 OFFCURVE",
"238 633 OFFCURVE",
"276 633 CURVE",
"300 633 OFFCURVE",
"305 631 OFFCURVE",
"329 624 CURVE",
"349.088 728.748 LINE"
);
}
);
width = 390;
}
);
},
{
glyphname = _circum_part;
lastChange = "2016-12-21 09:22:52 +0000";
layers = (
{
background = {
paths = (
{
closed = 1;
nodes = (
"261 263 LINE SMOOTH",
"350 157 LINE",
"438 157 LINE",
"438 173 LINE",
"294 341 LINE SMOOTH",
"262 341 LINE"
);
}
);
};
layerId = "7EBE3D46-E53E-419E-A3EC-596DA2EA1E0D";
name = Regular;
paths = (
{
closed = 1;
nodes = (
"245.971 260.787 LINE",
"341.51 147 LINE",
"453 147 LINE",
"453 175.295 LINE",
"302.396 351 LINE",
"247.128 351 LINE"
);
}
);
width = 600;
}
);
},
{
glyphname = _circle;
lastChange = "2016-12-21 09:22:52 +0000";
layers = (
{
background = {
paths = (
{
closed = 1;
nodes = (
"432 56 OFFCURVE",
"574 197 OFFCURVE",
"574 372 CURVE SMOOTH",
"574 546 OFFCURVE",
"432 688 OFFCURVE",
"258 688 CURVE SMOOTH",
"83 688 OFFCURVE",
"-58 546 OFFCURVE",
"-58 372 CURVE SMOOTH",
"-58 197 OFFCURVE",
"83 56 OFFCURVE",
"258 56 CURVE SMOOTH"
);
},
{
closed = 1;
nodes = (
"115 113 OFFCURVE",
"4 234 OFFCURVE",
"4 375 CURVE SMOOTH",
"4 517 OFFCURVE",
"115 633 OFFCURVE",
"257 633 CURVE SMOOTH",
"399 633 OFFCURVE",
"511 517 OFFCURVE",
"511 375 CURVE SMOOTH",
"511 234 OFFCURVE",
"399 113 OFFCURVE",
"257 113 CURVE SMOOTH"
);
}
);
};
layerId = "7EBE3D46-E53E-419E-A3EC-596DA2EA1E0D";
name = Regular;
paths = (
{
closed = 1;
nodes = (
"439.644 46 OFFCURVE",
"589 194.304 OFFCURVE",
"589 372 CURVE",
"589 548.678 OFFCURVE",
"439.678 698 OFFCURVE",
"258 698 CURVE",
"75.2891 698 OFFCURVE",
"-73 548.659 OFFCURVE",
"-73 372 CURVE",
"-73 194.322 OFFCURVE",
"75.3223 46 OFFCURVE",
"258 46 CURVE"
);
},
{
closed = 1;
nodes = (
"125.111 123 OFFCURVE",
"19 238.486 OFFCURVE",
"19 375 CURVE",
"19 512.408 OFFCURVE",
"124.914 623 OFFCURVE",
"257 623 CURVE",
"389.128 623 OFFCURVE",
"496 512.385 OFFCURVE",
"496 375 CURVE",
"496 238.509 OFFCURVE",
"388.931 123 OFFCURVE",
"257 123 CURVE"
);
}
);
width = 515;
}
);
},
{
glyphname = _acute;
lastChange = "2016-12-21 09:22:52 +0000";
layers = (
{
background = {
paths = (
{
closed = 1;
nodes = (
"283 728 OFFCURVE",
"242 646 OFFCURVE",
"214 590 CURVE",
"291 590 LINE SMOOTH",
"292 590 OFFCURVE",
"367 715 OFFCURVE",
"378 767 CURVE",
"294 768 LINE"
);
}
);
};
layerId = "7EBE3D46-E53E-419E-A3EC-596DA2EA1E0D";
name = Regular;
paths = (
{
closed = 1;
nodes = (
"273.015 737.471 OFFCURVE",
"222.89 639.242 OFFCURVE",
"193.354 580 CURVE",
"291 580 LINE",
"307.531 580 OFFCURVE",
"393.017 730.134 OFFCURVE",
"394.255 776.808 CURVE",
"281.36 778.152 LINE"
);
}
);
width = 600;
}
);
},
{
glyphname = _breve;
lastChange = "2016-12-21 09:50:05 +0000";
layers = (
{
background = {
paths = (
{
closed = 1;
nodes = (
"197 759 LINE",
"197 708 OFFCURVE",
"226 669 OFFCURVE",
"267 669 CURVE",
"378 669 OFFCURVE",
"379 586 OFFCURVE",
"289 586 CURVE SMOOTH",
"79 586 OFFCURVE",
"100 759 OFFCURVE",
"100 759 CURVE SMOOTH"
);
}
);
};
layerId = "7EBE3D46-E53E-419E-A3EC-596DA2EA1E0D";
name = Regular;
paths = (
{
closed = 1;
nodes = (
"84 768 LINE",
"84 714 OFFCURVE",
"94.4779 576 OFFCURVE",
"289 576 CURVE",
"398.21 576 OFFCURVE",
"406 679 OFFCURVE",
"276 679 CURVE",
"226 679 OFFCURVE",
"208.236 719.01 OFFCURVE",
"212.349 769 CURVE"
);
}
);
width = 600;
}
);
},
{
glyphname = _i_dotless_full;
lastChange = "2016-12-21 09:22:52 +0000";
layers = (
{
background = {
paths = (
{
closed = 1;
nodes = (
"80 420 LINE",
"222 420 LINE",
"222 500 LINE",
"80 500 LINE"
);
}
);
};
components = (
{
name = _I_small;
transform = "{1, 0, 0, 1, 101, 143}";
},
{
name = _I_small;
transform = "{1, 0, 0, 1, 101, 272}";
},
{
name = _I_small;
transform = "{1, 0, 0, 1, 101, 332}";
},
{
name = _I_small;
transform = "{1, 0, 0, 1, 101, 0}";
}
);
hints = (
{
horizontal = 1;
place = "{420.000000, 80.000000}";
}
);
layerId = "7EBE3D46-E53E-419E-A3EC-596DA2EA1E0D";
name = Regular;
paths = (
{
closed = 1;
nodes = (
"65 410 LINE",
"237 410 LINE",
"237 510 LINE",
"65 510 LINE"
);
}
);
width = 323;
}
);
},
{
glyphname = _slash_diacritics;
lastChange = "2016-12-21 09:22:52 +0000";
layers = (
{
background = {
paths = (
{
closed = 1;
nodes = (
"310 379 LINE",
"308 466 LINE",
"13 357 LINE SMOOTH",
"12 268 LINE SMOOTH"
);
}
);
};
layerId = "7EBE3D46-E53E-419E-A3EC-596DA2EA1E0D";
name = Regular;
paths = (
{
closed = 1;
nodes = (
"325.132 373.315 LINE",
"322.617 482.702 LINE",
"-1.93534 362.783 LINE",
"-3.1911 251.02 LINE"
);
}
);
width = 515;
}
);
},
{
glyphname = _cedilla_fragment;
lastChange = "2016-12-21 09:22:52 +0000";
layers = (
{
background = {
paths = (
{
closed = 1;
nodes = (
"297 311 LINE",
"329 291 OFFCURVE",
"366 272 OFFCURVE",
"421 273 CURVE SMOOTH",
"478 274 OFFCURVE",
"515 292 OFFCURVE",
"552 333 CURVE",
"531 422 LINE",
"492 389 OFFCURVE",
"454 371 OFFCURVE",
"415 370 CURVE SMOOTH",
"370 370 OFFCURVE",
"335 396 OFFCURVE",
"297 421 CURVE"
);
}
);
};
layerId = "7EBE3D46-E53E-419E-A3EC-596DA2EA1E0D";
name = Regular;
paths = (
{
closed = 1;
nodes = (
"282 306.999 LINE",
"313.253 286.87 OFFCURVE",
"356.751 261.829 OFFCURVE",
"421.273 263.002 CURVE",
"485.097 264.121 OFFCURVE",
"529.453 286.892 OFFCURVE",
"567.54 331.308 CURVE",
"540.335 446.605 LINE",
"492.054 401.486 OFFCURVE",
"454.813 381.027 OFFCURVE",
"414.616 379.997 CURVE",
"369.186 380 OFFCURVE",
"334.501 412.012 OFFCURVE",
"282 444.193 CURVE"
);
}
);
width = 600;
}
);
},
{
glyphname = _ve_cyr;
lastChange = "2016-12-21 09:22:52 +0000";
layers = (
{
background = {
paths = (
{
closed = 1;
nodes = (
"109 435 LINE",
"120 435 OFFCURVE",
"244 435 OFFCURVE",
"255 435 CURVE SMOOTH",
"415 437 OFFCURVE",
"470 484 OFFCURVE",
"470 569 CURVE SMOOTH",
"470 666 OFFCURVE",
"399 703 OFFCURVE",
"261 702 CURVE SMOOTH",
"112 701 LINE",
"127 620 LINE",
"242 620 LINE SMOOTH",
"330 620 OFFCURVE",
"366 603 OFFCURVE",
"366 558 CURVE SMOOTH",
"366 514 OFFCURVE",
"344 484 OFFCURVE",
"259 484 CURVE SMOOTH",
"120 484 LINE"
);
}
);
};
layerId = "7EBE3D46-E53E-419E-A3EC-596DA2EA1E0D";
name = Regular;
paths = (
{
closed = 1;
nodes = (
"94.3643 437.19 LINE",
"109 425 LINE",
"120 425 OFFCURVE",
"244 425 OFFCURVE",
"255 425 CURVE",
"422.04 427.086 OFFCURVE",
"485 480.889 OFFCURVE",
"485 569 CURVE",
"485 670.664 OFFCURVE",
"403.694 713.035 OFFCURVE",
"260.891 712 CURVE",
"95.0827 710.887 LINE",
"113.765 610 LINE",
"242 610 LINE",
"323.576 610 OFFCURVE",
"351 595.921 OFFCURVE",
"351 558 CURVE",
"351 518.044 OFFCURVE",
"332.849 494 OFFCURVE",
"259 494 CURVE",
"107.117 494 LINE"
);
}
);
width = 556;
}
);
},
{
glyphname = _three;
lastChange = "2016-12-21 09:22:52 +0000";
layers = (
{
background = {
paths = (
{
closed = 1;
nodes = (
"469 363 OFFCURVE",
"469 522 CURVE SMOOTH",
"469 628 OFFCURVE",
"390 710 OFFCURVE",
"245 710 CURVE SMOOTH",
"199 710 OFFCURVE",
"133 701 OFFCURVE",
"81 665 CURVE",
"99 575 LINE",
"140 596 OFFCURVE",
"188 616 OFFCURVE",
"244 616 CURVE SMOOTH",
"334 616 OFFCURVE",
"367 562 OFFCURVE",
"367 514 CURVE SMOOTH",
"367 464 OFFCURVE",
"330 428 OFFCURVE",
"274 409 CURVE SMOOTH",
"262 404 OFFCURVE",
"191 397 OFFCURVE",
"172 397 CURVE",
"172 320 LINE",
"302 335 OFFCURVE"
);
}
);
};
layerId = "7EBE3D46-E53E-419E-A3EC-596DA2EA1E0D";
name = Regular;
paths = (
{
closed = 1;
nodes = (
"288.949 322.846 OFFCURVE",
"484 348.023 OFFCURVE",
"484 522 CURVE",
"484 630.581 OFFCURVE",
"397.852 720 OFFCURVE",
"245 720 CURVE",
"195.495 720 OFFCURVE",
"119.329 709.307 OFFCURVE",
"65.297 668.01 CURVE",
"87.5901 556.545 LINE",
"135.506 582.038 OFFCURVE",
"184.382 606 OFFCURVE",
"244 606 CURVE",
"322.077 606 OFFCURVE",
"352 558.304 OFFCURVE",
"352 514 CURVE",
"352 468.831 OFFCURVE",
"318.191 435.098 OFFCURVE",
"269.181 418.47 CURVE",
"268.231 418.231 LINE",
"257.165 413.62 OFFCURVE",
"190.018 407 OFFCURVE",
"172 407 CURVE",
"157 397 LINE",
"157 308.177 LINE"
);
}
);
width = 539;
}
);
},
{
glyphname = _ze_cyr;
lastChange = "2016-12-21 09:22:52 +0000";
layers = (
{
background = {
paths = (
{
closed = 1;
nodes = (
"469 243 OFFCURVE",
"469 370 CURVE SMOOTH",
"469 486 OFFCURVE",
"390 517 OFFCURVE",
"285 517 CURVE SMOOTH",
"187 517 OFFCURVE",
"153 500 OFFCURVE",
"101 482 CURVE",
"119 397 LINE",
"160 418 OFFCURVE",
"207 423 OFFCURVE",
"267 423 CURVE SMOOTH",
"334 423 OFFCURVE",
"367 409 OFFCURVE",
"367 371 CURVE SMOOTH",
"367 324 OFFCURVE",
"307 287 OFFCURVE",
"172 304 CURVE",
"172 227 LINE",
"281 242 OFFCURVE"
);
}
);
};
layerId = "7EBE3D46-E53E-419E-A3EC-596DA2EA1E0D";
name = Regular;
paths = (
{
closed = 1;
nodes = (
"256.742 231.768 OFFCURVE",
"484 227.486 OFFCURVE",
"484 370 CURVE",
"484 491.573 OFFCURVE",
"393.718 527 OFFCURVE",
"285 527 CURVE",
"174.689 527 OFFCURVE",
"140.35 505.683 OFFCURVE",
"84.6964 487.621 CURVE",
"107.962 377.755 LINE",
"153.228 407.024 OFFCURVE",
"199.172 413 OFFCURVE",
"267 413 CURVE",
"327.952 413 OFFCURVE",
"352 401.558 OFFCURVE",
"352 371 CURVE",
"352 328.442 OFFCURVE",
"296.128 295.182 OFFCURVE",
"157 316.267 CURVE",
"157 214.478 LINE"
);
}
);
width = 539;
}
);
},
{
glyphname = _D_cyr;
lastChange = "2016-12-21 09:22:52 +0000";
layers = (
{
background = {
paths = (
{
closed = 1;
nodes = (
"501 0 LINE",
"560 0 LINE",
"560 -134 LINE",
"652 -134 LINE",
"651 82 LINE",
"496 81 LINE"
);
}
);
};
layerId = "7EBE3D46-E53E-419E-A3EC-596DA2EA1E0D";
name = Regular;
paths = (
{
closed = 1;
nodes = (
"486.608 -10 LINE",
"545 -10 LINE",
"545 -144 LINE",
"667.046 -144 LINE",
"665.953 92.0969 LINE",
"480.379 90.8996 LINE"
);
}
);
width = 600;
}
);
},
{
glyphname = _k_cyr;
lastChange = "2016-12-21 09:22:52 +0000";
layers = (
{
background = {
paths = (
{
closed = 1;
nodes = (
"121 227 LINE",
"249 226 LINE SMOOTH",
"274 262 LINE",
"445 475 LINE",
"445 498 LINE",
"347 498 LINE",
"194 295 LINE",
"138 294 LINE SMOOTH"
);
}
);
};
layerId = "7EBE3D46-E53E-419E-A3EC-596DA2EA1E0D";
name = Regular;
paths = (
{
closed = 1;
nodes = (
"103.334 217.137 LINE",
"258.286 215.927 LINE",
"286.321 256.296 LINE",
"285.697 255.74 LINE",
"460 472.854 LINE",
"460 508 LINE",
"338.022 508 LINE",
"184.902 304.841 LINE",
"125.317 303.777 LINE"
);
}
);
width = 600;
}
);
},
{
glyphname = _d_curl;
lastChange = "2016-12-21 12:45:13 +0000";
layers = (
{
background = {
paths = (
{
closed = 1;
nodes = (
"251 511 LINE",
"168 511 OFFCURVE",
"107 423 OFFCURVE",
"98 313 CURVE",
"127 263 LINE",
"138 384 OFFCURVE",
"193 419 OFFCURVE",
"251 419 CURVE"
);
}
);
};
layerId = "7EBE3D46-E53E-419E-A3EC-596DA2EA1E0D";
name = Regular;
paths = (
{
closed = 1;
nodes = (
"261 520 LINE",
"170 520 OFFCURVE",
"119 420 OFFCURVE",
"100 332 CURVE",
"143 213 LINE",
"143 383 OFFCURVE",
"209 408 OFFCURVE",
"261 408 CURVE"
);
}
);
width = 494;
}
);
},
{
glyphname = _Z;
lastChange = "2016-12-21 09:22:52 +0000";
layers = (
{
background = {
paths = (
{
closed = 1;
nodes = (
"369 291 LINE SMOOTH",
"589 677 LINE",
"589 700 LINE",
"491 700 LINE",
"327 403 LINE SMOOTH",
"337 291 LINE"
);
}
);
};
layerId = "7EBE3D46-E53E-419E-A3EC-596DA2EA1E0D";
name = Regular;
paths = (
{
closed = 1;
nodes = (
"379.155 281 LINE",
"604 675.501 LINE",
"604 710 LINE",
"480.722 710 LINE",
"311.871 404.216 LINE",
"322.873 281 LINE"
);
}
);
width = 661;
}
);
},
{
glyphname = _c;
lastChange = "2016-12-21 10:24:38 +0000";
layers = (
{
background = {
paths = (
{
closed = 1;
nodes = (
"321 573 OFFCURVE",
"363 556 OFFCURVE",
"398 537 CURVE",
"416 630 LINE",
"378 653 OFFCURVE",
"331 665 OFFCURVE",
"275 665 CURVE",
"276 573 LINE"
);
}
);
};
layerId = "7EBE3D46-E53E-419E-A3EC-596DA2EA1E0D";
name = Regular;
paths = (
{
closed = 1;
nodes = (
"315.435 567.231 OFFCURVE",
"364 547 OFFCURVE",
"409 524 CURVE",
"431.76 633.438 LINE",
"389.787 661.856 OFFCURVE",
"328.779 677.356 OFFCURVE",
"259.894 674.708 CURVE",
"261.116 562.331 LINE"
);
}
);
width = 506;
}
);
},
{
glyphname = _quotes;
lastChange = "2016-12-21 10:36:00 +0000";
layers = (
{
background = {
paths = (
{
closed = 1;
nodes = (
"155 -13 OFFCURVE",
"150 -36 OFFCURVE",
"125 -80 CURVE",
"161 -91 LINE SMOOTH",
"162 -91 OFFCURVE",
"228 -18 OFFCURVE",
"230 59 CURVE",
"125 -4 LINE"
);
}
);
};
components = (
{
name = _dot;
transform = "{1, 0, 0, 1, 23, -608}";
}
);
layerId = "7EBE3D46-E53E-419E-A3EC-596DA2EA1E0D";
name = Regular;
paths = (
{
closed = 1;
nodes = (
"133 -27 OFFCURVE",
"131 -43 OFFCURVE",
"106.088 -85.1241 CURVE",
"156.617 -100.564 LINE",
"161 -101 LINE",
"175.769 -101 OFFCURVE",
"253 -15 OFFCURVE",
"242 77 CURVE",
"91 4 LINE"
);
}
);
width = 600;
}
);
},
{
glyphname = _yQ;
lastChange = "2016-12-22 06:07:36 +0000";
layers = (
{
background = {
paths = (
{
closed = 1;
nodes = (
"224 -12 LINE",
"211 -48 LINE SMOOTH",
"188 -111 OFFCURVE",
"156 -122 OFFCURVE",
"114 -108 CURVE",
"123 -200 LINE",
"200 -212 OFFCURVE",
"253 -172 OFFCURVE",
"283 -93 CURVE",
"313 -12 LINE"
);
}
);
};
layerId = "7EBE3D46-E53E-419E-A3EC-596DA2EA1E0D";
name = Regular;
paths = (
{
closed = 1;
nodes = (
"212.276 -2 LINE",
"196.892 -44.6036 LINE",
"171.808 -113.328 OFFCURVE",
"146 -111 OFFCURVE",
"97 -100 CURVE",
"108.724 -207.645 LINE",
"199.179 -227.297 OFFCURVE",
"265.249 -180.222 OFFCURVE",
"297.023 -96.5501 CURVE",
"332.056 -2 LINE"
);
}
);
width = 511;
}
);
},
{
glyphname = _m_cyr;
lastChange = "2016-12-21 09:22:52 +0000";
layers = (
{
background = {
paths = (
{
closed = 1;
nodes = (
"165 500 LINE SMOOTH",
"20 24 LINE",
"20 1 LINE",
"118 1 LINE",
"194 302 LINE",
"213 302 LINE SMOOTH",
"187 500 LINE"
);
}
);
};
layerId = "7EBE3D46-E53E-419E-A3EC-596DA2EA1E0D";
name = Regular;
paths = (
{
closed = 1;
nodes = (
"152.81 510 LINE",
"5 24.777 LINE",
"5 -9 LINE",
"130.637 -9 LINE",
"206.637 292 LINE",
"229.356 292 LINE",
"200.73 510 LINE"
);
}
);
width = 682;
}
);
},
{
glyphname = _m_cyr_2;
lastChange = "2016-12-21 10:26:27 +0000";
layers = (
{
background = {
paths = (
{
closed = 1;
nodes = (
"149 400 LINE SMOOTH",
"373 141 LINE",
"406 141 LINE",
"402 273 LINE",
"383 273 LINE",
"182 500 LINE SMOOTH",
"150 500 LINE"
);
}
);
};
layerId = "7EBE3D46-E53E-419E-A3EC-596DA2EA1E0D";
name = Regular;
paths = (
{
closed = 1;
nodes = (
"133.977 397.711 LINE",
"375 121 LINE",
"401 121 LINE",
"397 273 LINE",
"381 273 LINE",
"190.246 510 LINE",
"135.1 510 LINE"
);
}
);
width = 682;
}
);
},
{
glyphname = _u_cyr;
lastChange = "2016-12-21 09:22:52 +0000";
layers = (
{
background = {
paths = (
{
closed = 1;
nodes = (
"80 304 OFFCURVE",
"157 231 OFFCURVE",
"274 231 CURVE SMOOTH",
"310 231 OFFCURVE",
"345 240 OFFCURVE",
"374 250 CURVE",
"371 327 LINE",
"334 318 OFFCURVE",
"315 316 OFFCURVE",
"273 318 CURVE SMOOTH",
"228 320 OFFCURVE",
"172 341 OFFCURVE",
"172 414 CURVE SMOOTH",
"172 481 OFFCURVE",
"80 524 OFFCURVE",
"80 414 CURVE SMOOTH"
);
}
